<svg width="208" height="79" viewBox="0 0 208 79" fill="none" xmlns="http://www.w3.org/2000/svg">
<path d="M1.008 71.104C0.794666 70.336 0.688 69.5467 0.688 68.736C0.688 68.6507 0.730666 68.5653 0.816 68.48L0.88 67.456C0.88 67.4133 0.901333 67.3707 0.944 67.328L1.008 67.2V66.688C1.05067 66.6453 1.072 66.6027 1.072 66.56C1.072 66.5173 1.072 66.4533 1.072 66.368C1.02933 66.3253 1.008 66.2827 1.008 66.24C1.008 66.0693 1.072 65.7493 1.2 65.28C1.328 64.8107 1.392 64.4693 1.392 64.256C1.43467 64.1707 1.52 64.0427 1.648 63.872L1.776 63.616C1.776 63.5733 1.776 63.5093 1.776 63.424C1.73333 63.3387 1.712 63.2747 1.712 63.232C1.712 63.0613 1.79733 62.848 1.968 62.592C2.13867 62.336 2.224 62.144 2.224 62.016C2.224 61.9733 2.20267 61.9093 2.16 61.824C2.11733 61.7813 2.096 61.7387 2.096 61.696C2.096 61.2267 2.45867 60.48 3.184 59.456V59.136C3.44 58.88 3.696 58.3253 3.952 57.472C4.208 56.6613 4.48533 56.1067 4.784 55.808C4.74133 55.5093 4.912 55.232 5.296 54.976H5.36L5.296 54.848C5.25333 54.8053 5.232 54.7627 5.232 54.72C5.232 54.5493 5.68 53.6533 6.576 52.032L10.224 45.696C10.6933 45.0987 10.9493 44.736 10.992 44.608C11.12 44.4373 11.3333 44.096 11.632 43.584C11.9733 43.0293 12.2507 42.6027 12.464 42.304C12.592 42.2187 12.72 42.0053 12.848 41.664C13.0187 41.28 13.1467 41.0453 13.232 40.96C13.8293 40.1493 14.256 39.6373 14.512 39.424C14.4693 39.424 14.448 39.4027 14.448 39.36C14.448 39.2747 14.4693 39.1893 14.512 39.104C14.7253 38.9333 14.96 38.6347 15.216 38.208C15.5147 37.7813 15.7493 37.4827 15.92 37.312C15.9627 37.184 16.0693 37.0133 16.24 36.8C16.4533 36.544 16.5813 36.3307 16.624 36.16L17.328 35.456C17.5413 35.2427 17.8613 34.88 18.288 34.368C18.3307 34.2827 18.3733 34.2187 18.416 34.176C18.4587 34.176 18.48 34.176 18.48 34.176C18.5227 34.1333 18.5653 34.0907 18.608 34.048C18.48 33.664 19.44 32.3413 21.488 30.08C21.5307 29.8667 21.7227 29.6747 22.064 29.504C22.0213 29.504 22 29.44 22 29.312C22.2133 28.8853 22.384 28.608 22.512 28.48L23.088 27.84L23.28 27.776C23.408 27.7333 23.472 27.6693 23.472 27.584C23.4293 27.4987 23.408 27.4347 23.408 27.392C23.408 27.3067 23.472 27.2213 23.6 27.136C23.728 27.0507 23.8773 26.9653 24.048 26.88C24.2187 26.7947 24.3253 26.7307 24.368 26.688C24.4533 26.6027 24.624 26.368 24.88 25.984C25.1787 25.6 25.4133 25.3227 25.584 25.152C25.6267 24.9813 25.776 24.7467 26.032 24.448L27.376 23.04C27.4613 22.9973 27.568 22.848 27.696 22.592C28.1227 22.3787 28.6987 21.8667 29.424 21.056C30.192 20.2027 31.0027 19.264 31.856 18.24C32.752 17.216 33.3707 16.5333 33.712 16.192C34.0533 15.936 34.5867 15.4667 35.312 14.784C36.08 14.0587 36.6773 13.5467 37.104 13.248C37.232 13.1627 37.4027 12.9707 37.616 12.672C37.8293 12.3307 38.0427 12.096 38.256 11.968C39.0667 10.6027 40.624 9.38666 42.928 8.32C43.0987 8.23466 43.3547 7.97866 43.696 7.552C44.08 7.12533 44.336 6.86933 44.464 6.784C44.5493 6.74133 44.72 6.67733 44.976 6.592C45.2747 6.464 45.4667 6.35733 45.552 6.272L46 5.76H46.064C46.2773 5.71733 46.768 5.41867 47.536 4.864C48.304 4.26667 48.7733 3.968 48.944 3.968H49.264C49.3493 3.88266 49.5413 3.79733 49.84 3.712C50.1387 3.584 50.3307 3.43466 50.416 3.264C50.672 3.30666 51.1413 3.15733 51.824 2.816C52.5493 2.432 52.9973 2.21866 53.168 2.176C53.68 1.87733 54.448 1.6 55.472 1.344C56.5387 1.04533 57.3707 0.895996 57.968 0.895996C58.0533 0.895996 58.2027 0.938663 58.416 1.024C58.6293 1.06666 58.8 1.088 58.928 1.088C59.0133 1.088 59.12 1.06666 59.248 1.024C59.4187 0.981332 59.5253 0.959999 59.568 0.959999C60.208 0.959999 61.0187 1.13066 62 1.472C63.024 1.81333 63.664 2.00533 63.92 2.048L64.624 2.432C65.0933 2.56 65.456 2.77333 65.712 3.072C66.0107 3.328 66.3093 3.712 66.608 4.224C66.9067 4.736 67.12 5.07733 67.248 5.248C67.2907 5.29066 67.3547 5.376 67.44 5.504C67.568 5.58933 67.6533 5.696 67.696 5.824C67.7813 5.90933 67.824 5.99466 67.824 6.08C67.824 6.16533 67.8027 6.25066 67.76 6.336C67.76 6.42133 67.76 6.48533 67.76 6.528C67.76 6.61333 67.8027 6.76266 67.888 6.976C68.016 7.14666 68.08 7.296 68.08 7.424C68.08 7.552 68.016 7.65866 67.888 7.744C67.8027 7.82933 67.76 7.89333 67.76 7.936C67.8027 8.448 67.6107 9.13066 67.184 9.984L67.12 10.048C67.12 10.1333 67.1413 10.2187 67.184 10.304C67.2267 10.3467 67.248 10.3893 67.248 10.432C67.248 10.6453 67.1627 10.8373 66.992 11.008C66.8213 11.1787 66.6507 11.2427 66.48 11.2C66.5227 11.328 66.4587 11.4773 66.288 11.648C66.16 11.776 66.096 11.8827 66.096 11.968V12.288C66.096 12.5867 65.136 13.696 63.216 15.616L62.832 16.064C62.7467 16.1493 62.6613 16.2773 62.576 16.448C62.5333 16.6187 62.448 16.7467 62.32 16.832C62.2347 16.9173 62.0427 17.024 61.744 17.152C61.488 17.28 61.3387 17.344 61.296 17.344L60.976 17.664L60.912 17.728C60.912 17.7707 60.9333 17.8133 60.976 17.856L61.04 17.984C61.04 18.0693 60.4427 18.5813 59.248 19.52C58.096 20.416 57.52 20.8853 57.52 20.928C57.52 20.9707 57.5413 21.0133 57.584 21.056L57.648 21.184C57.648 21.312 57.392 21.5253 56.88 21.824C56.4107 22.08 56.1973 22.3573 56.24 22.656C56.112 22.8693 55.3013 23.5947 53.808 24.832C52.3147 26.0267 51.5253 26.624 51.44 26.624C51.3547 26.624 51.312 26.6027 51.312 26.56H51.184C50.8853 26.56 50.736 26.7093 50.736 27.008C50.736 27.0507 50.7787 27.0933 50.864 27.136C50.992 27.136 51.056 27.1787 51.056 27.264C51.056 27.4347 50.736 27.6693 50.096 27.968C49.4987 28.2667 49.1787 28.4587 49.136 28.544L49.072 28.672C49.072 28.7147 49.0933 28.7787 49.136 28.864V28.928C49.136 29.0987 48.9227 29.2693 48.496 29.44C48.112 29.568 47.92 29.7387 47.92 29.952C47.5787 30.5493 46.9173 31.0187 45.936 31.36C45.808 31.4453 45.552 31.7227 45.168 32.192C44.8267 32.6613 44.5493 32.9173 44.336 32.96L43.824 33.024L43.696 33.152C43.3973 33.6213 42.5013 34.3253 41.008 35.264C40.4533 35.4773 40.1333 35.6693 40.048 35.84C39.408 36.3947 38.576 36.9493 37.552 37.504C36.528 38.0587 35.7173 38.336 35.12 38.336C35.0347 38.336 34.9493 38.3147 34.864 38.272C34.8213 38.2293 34.7787 38.208 34.736 38.208C34.6933 38.208 34.608 38.2507 34.48 38.336C34.352 38.3787 34.2453 38.4 34.16 38.4C33.8187 38.4 33.392 38.144 32.88 37.632C32.4107 37.0773 32.176 36.6293 32.176 36.288V35.84C32.2613 35.7547 32.4747 35.6053 32.816 35.392C33.1573 35.136 33.3707 34.9867 33.456 34.944H33.52C33.776 34.944 34.1173 35.0293 34.544 35.2C35.0133 35.3707 35.3547 35.456 35.568 35.456C35.8667 35.456 36.2933 35.2853 36.848 34.944C37.4453 34.6027 37.872 34.432 38.128 34.432H38.256C38.2987 34.304 38.6187 34.0053 39.216 33.536C39.5147 33.4933 39.8773 33.344 40.304 33.088C40.7307 32.7893 41.008 32.6187 41.136 32.576L41.776 32.064C42.032 32.0213 42.8427 31.5093 44.208 30.528C45.5733 29.504 46.3413 28.864 46.512 28.608C46.7253 28.352 47.4933 27.776 48.816 26.88C48.9867 26.752 49.2427 26.4747 49.584 26.048C49.968 25.5787 50.2667 25.28 50.48 25.152L51.376 24.576C51.5467 24.4907 51.9093 24.1493 52.464 23.552C53.0187 22.9547 53.488 22.6347 53.872 22.592C55.1947 21.5253 55.9413 20.7787 56.112 20.352L56.624 19.84C56.6667 19.7973 56.7947 19.7333 57.008 19.648C57.264 19.52 57.4133 19.3707 57.456 19.2C57.4987 18.944 57.7973 18.624 58.352 18.24C58.9067 17.856 59.184 17.6427 59.184 17.6V17.344C59.44 17.344 59.824 17.0667 60.336 16.512C60.848 15.9147 61.2107 15.552 61.424 15.424C61.3813 15.2533 61.424 15.0187 61.552 14.72C61.7227 14.5067 62.32 13.952 63.344 13.056L63.664 12.672C63.8773 12.672 64.0053 12.608 64.048 12.48C64.048 12.352 64.1973 12.032 64.496 11.52C64.5387 11.4347 64.6453 11.3067 64.816 11.136C64.9867 10.9227 65.1147 10.7733 65.2 10.688C65.5413 10.4747 65.84 9.96266 66.096 9.152C66.3947 8.34133 66.544 7.72266 66.544 7.296C66.544 7.168 66.48 7.01866 66.352 6.848C66.224 6.67733 66.16 6.54933 66.16 6.464V6.08C66.16 5.35466 65.328 4.62933 63.664 3.904C62 3.136 60.784 2.752 60.016 2.752C59.9733 2.752 59.9093 2.77333 59.824 2.816C59.7813 2.816 59.7387 2.816 59.696 2.816C59.6533 2.816 59.5893 2.79467 59.504 2.752C59.4187 2.70933 59.3333 2.688 59.248 2.688C59.1627 2.688 59.0133 2.70933 58.8 2.752C58.6293 2.752 58.5013 2.752 58.416 2.752C57.8187 3.008 56.9867 3.136 55.92 3.136H55.728C55.6853 3.136 55.5573 3.2 55.344 3.328C55.1307 3.456 54.9173 3.52 54.704 3.52C54.6613 3.52 54.5547 3.49866 54.384 3.456C54.2133 3.41333 54.1067 3.392 54.064 3.392L53.872 3.456L53.744 3.712C53.6587 3.79733 53.5733 3.84 53.488 3.84H53.232C52.9333 4.13866 52.6773 4.288 52.464 4.288C52.4213 4.288 52.3573 4.26667 52.272 4.224C52.1867 4.18133 52.1227 4.16 52.08 4.16C51.9947 4.16 51.8027 4.288 51.504 4.544C51.248 4.75733 51.0987 4.88533 51.056 4.928H50.864C50.8213 4.928 50.736 4.928 50.608 4.928C50.48 4.88533 50.3947 4.864 50.352 4.864C50.2667 4.864 49.776 5.184 48.88 5.824C48.0267 6.464 47.536 6.86933 47.408 7.04L46 7.744C45.9573 7.744 45.8933 7.744 45.808 7.744C45.7653 7.70133 45.7227 7.68 45.68 7.68C45.5947 7.68 45.3387 7.808 44.912 8.064C44.528 8.32 44.336 8.46933 44.336 8.512L44.4 8.576C44.4 8.74666 43.8453 9.216 42.736 9.984C41.6267 10.7093 41.0507 11.1573 41.008 11.328C40.88 11.456 40.7093 11.584 40.496 11.712C40.2827 11.84 40.0907 11.968 39.92 12.096C39.7493 12.1813 39.5787 12.3093 39.408 12.48C39.28 12.608 39.216 12.7573 39.216 12.928C39.0027 13.184 38.6827 13.3973 38.256 13.568C38.128 13.6107 38.064 13.6747 38.064 13.76C38.1067 13.8027 38.1067 13.8667 38.064 13.952C38.0213 13.9947 37.8933 14.016 37.68 14.016C37.552 14.1013 37.4027 14.272 37.232 14.528C37.0613 14.784 36.8907 14.976 36.72 15.104C36.6347 15.232 36.4427 15.3813 36.144 15.552C35.8453 15.7227 35.696 15.8933 35.696 16.064V16.192V16.256C35.696 16.3413 35.6107 16.4267 35.44 16.512C35.0133 16.6827 34.352 17.3013 33.456 18.368C32.56 19.4347 32.0053 19.9893 31.792 20.032H31.6C31.344 20.032 31.216 20.0747 31.216 20.16L31.344 20.224C31.3867 20.2667 31.408 20.3093 31.408 20.352C31.408 20.5227 31.3227 20.6933 31.152 20.864C31.024 21.0347 30.8533 21.2053 30.64 21.376C30.4267 21.504 30.2987 21.6107 30.256 21.696C30.2133 22.0373 29.9573 22.3573 29.488 22.656C29.0187 22.912 28.7413 23.0827 28.656 23.168C28.656 23.552 28.336 23.9147 27.696 24.256C27.696 24.2987 27.7173 24.3413 27.76 24.384V24.512V24.576C27.7173 24.6187 27.4613 24.8107 26.992 25.152C26.5227 25.4933 26.3093 25.8773 26.352 26.304C26.3093 26.3893 26.1387 26.56 25.84 26.816C25.584 27.0293 25.4347 27.1787 25.392 27.264L24.944 27.712V27.904C24.816 28.032 24.6667 28.1813 24.496 28.352C24.368 28.5227 24.2613 28.6507 24.176 28.736C23.9627 28.7787 23.7493 28.992 23.536 29.376C23.3227 29.7173 23.1307 29.9093 22.96 29.952C22.96 30.2507 22.7253 30.6133 22.256 31.04C21.8293 31.424 21.5947 31.7867 21.552 32.128C20.9973 32.6827 20.4853 33.3653 20.016 34.176C19.2907 34.6453 18.8853 35.1147 18.8 35.584C18.2453 36.0107 17.9893 36.3733 18.032 36.672V36.736C17.904 36.8213 17.6907 37.0773 17.392 37.504C17.0933 37.888 16.8373 38.2507 16.624 38.592L16.24 39.168L15.536 39.808C15.408 39.936 15.2587 40.192 15.088 40.576C14.96 40.9173 14.8107 41.1307 14.64 41.216C14.5973 41.3013 14.448 41.5787 14.192 42.048C13.936 42.5173 13.744 42.816 13.616 42.944C12.976 43.584 12.6987 44.032 12.784 44.288C12.4853 44.6293 12.1013 45.184 11.632 45.952C11.2053 46.6773 10.8427 47.2107 10.544 47.552C10.5013 48.2347 10.16 48.7893 9.52 49.216C9.47733 49.472 9.136 50.24 8.496 51.52C8.15467 51.776 7.89867 52.224 7.728 52.864C7.68533 53.0347 7.51467 53.2693 7.216 53.568C6.96 53.8667 6.832 54.0373 6.832 54.08V54.144C7.00267 54.144 7.088 54.1867 7.088 54.272C7.00267 54.3573 6.87467 54.6347 6.704 55.104C6.53333 55.5307 6.40533 55.7867 6.32 55.872L6 56.128C6 56.2133 5.936 56.3627 5.808 56.576C5.68 56.832 5.616 57.0453 5.616 57.216V57.344C5.616 57.3013 5.63733 57.3013 5.68 57.344C5.68 57.3867 5.68 57.4507 5.68 57.536L5.616 57.6C5.57333 57.6853 5.424 57.8773 5.168 58.176C4.912 58.4747 4.72 58.7307 4.592 58.944C4.464 59.2 4.4 59.456 4.4 59.712L4.464 59.776C4.464 59.8187 4.464 59.8613 4.464 59.904C4.464 59.9893 4.42133 60.0747 4.336 60.16C4.208 60.2453 4.144 60.3093 4.144 60.352C4.144 60.3947 4.16533 60.4373 4.208 60.48C4.25067 60.5653 4.272 60.6293 4.272 60.672C4.272 60.7573 4.208 60.864 4.08 60.992C3.90933 61.12 3.824 61.248 3.824 61.376V61.632C3.824 61.7173 3.73867 61.8667 3.568 62.08C3.39733 62.2933 3.312 62.4213 3.312 62.464C3.35467 62.5493 3.376 62.6347 3.376 62.72C3.376 62.8907 3.35467 63.0827 3.312 63.296C3.22667 63.552 3.184 63.744 3.184 63.872C2.97067 64.512 2.864 64.8747 2.864 64.96V65.6C2.736 65.984 2.672 66.1973 2.672 66.24C2.672 66.3253 2.69333 66.3893 2.736 66.432C2.77867 66.5173 2.8 66.5813 2.8 66.624C2.8 66.752 2.77867 66.9227 2.736 67.136C2.65067 67.392 2.608 67.5627 2.608 67.648L2.672 67.712C2.672 67.7547 2.672 67.7973 2.672 67.84C2.672 67.8827 2.65067 67.9467 2.608 68.032C2.56533 68.1173 2.544 68.1813 2.544 68.224V69.12C2.544 69.248 2.608 69.4187 2.736 69.632C2.82133 69.888 2.864 70.08 2.864 70.208C2.864 70.4213 2.69333 70.6987 2.352 71.04V71.104C2.352 71.1467 2.37333 71.1893 2.416 71.232C2.8 71.488 3.14133 71.936 3.44 72.576C3.696 73.216 3.90933 73.6427 4.08 73.856C5.40267 75.52 7.152 76.352 9.328 76.352C9.49867 76.352 9.66933 76.416 9.84 76.544C10.0533 76.7147 10.2453 76.8 10.416 76.8C10.5013 76.8 10.608 76.7787 10.736 76.736C10.9067 76.6933 11.056 76.672 11.184 76.672C11.2693 76.672 11.3973 76.672 11.568 76.672C11.7387 76.7147 11.8667 76.736 11.952 76.736C12.1653 76.736 12.528 76.672 13.04 76.544C13.5947 76.4587 14 76.416 14.256 76.416C14.2987 76.416 14.3627 76.416 14.448 76.416C14.576 76.4587 14.6827 76.48 14.768 76.48C14.9813 76.48 15.2373 76.3947 15.536 76.224C15.8347 76.0533 16.0907 75.968 16.304 75.968C16.3467 75.968 16.432 75.968 16.56 75.968C16.688 76.0107 16.7733 76.032 16.816 76.032C17.072 76.032 17.456 75.9253 17.968 75.712C18.48 75.4987 18.7787 75.3707 18.864 75.328C19.0773 75.328 19.3547 75.2213 19.696 75.008C20.08 74.8373 20.2933 74.752 20.336 74.752L20.976 74.688H21.04C21.04 74.6453 21.104 74.56 21.232 74.432H21.616C21.6587 74.3467 22.192 74.0693 23.216 73.6C24.24 73.1733 25.3067 72.704 26.416 72.192C27.568 71.68 28.272 71.296 28.528 71.04C29.2107 70.6987 29.616 70.4853 29.744 70.4C30.128 70.3573 31.152 69.8453 32.816 68.864C34.5227 67.8827 35.5893 67.2 36.016 66.816L36.592 66.304C36.9333 65.8773 37.3387 65.6 37.808 65.472C38.7893 65.0453 40.112 64.128 41.776 62.72C43.44 61.312 44.7627 60.3947 45.744 59.968C45.8293 59.9253 45.9573 59.7547 46.128 59.456C46.2987 59.1573 46.448 58.9867 46.576 58.944C46.7893 58.8587 47.152 58.6453 47.664 58.304C48.176 58.0053 48.4747 57.8347 48.56 57.792C48.7307 57.7067 48.944 57.472 49.2 57.088C49.456 56.704 49.648 56.448 49.776 56.32C49.9467 56.3627 50.6507 55.8933 51.888 54.912C53.168 53.888 53.9147 53.2267 54.128 52.928H54.256C55.1093 52.0747 55.6 51.648 55.728 51.648C56.1973 51.0933 56.9227 50.4107 57.904 49.6C58.928 48.7467 59.6533 48.0853 60.08 47.616C60.1227 47.5733 60.1653 47.4667 60.208 47.296C60.2507 47.1253 60.3147 46.9973 60.4 46.912C61.1253 46.912 61.5093 46.656 61.552 46.144C62.3627 45.2053 62.96 44.736 63.344 44.736H63.536C63.5787 44.736 63.6427 44.8213 63.728 44.992C63.8133 45.1627 63.856 45.2907 63.856 45.376C63.856 45.504 63.792 45.6107 63.664 45.696C63.5787 45.7813 63.4293 45.8667 63.216 45.952C63.0027 45.9947 62.8747 46.0373 62.832 46.08C62.576 46.336 62.448 46.4853 62.448 46.528C62.4053 46.5707 62.2987 46.6133 62.128 46.656C62 46.6987 61.872 46.7413 61.744 46.784C61.6587 46.8267 61.616 46.8907 61.616 46.976C61.616 47.0187 61.6373 47.0827 61.68 47.168L61.744 47.296C61.744 47.3813 61.7013 47.424 61.616 47.424H61.424C61.424 47.5947 61.3387 47.7653 61.168 47.936C60.9973 48.064 60.9333 48.192 60.976 48.32C60.976 48.3627 60.9547 48.4053 60.912 48.448H60.784V48.64L60.72 48.704H60.464L59.248 49.92C59.248 49.9627 59.248 49.984 59.248 49.984C59.2907 49.984 59.312 50.0053 59.312 50.048C59.1413 50.0053 58.992 50.0907 58.864 50.304C58.736 50.5173 58.608 50.624 58.48 50.624V50.688L58.544 50.816L58.48 50.88H58.16V50.944L58.096 51.072L57.84 51.136H57.776C57.776 51.1787 57.7973 51.2427 57.84 51.328L57.904 51.456V51.52C57.7333 51.5627 57.456 51.7547 57.072 52.096C56.688 52.4373 56.4533 52.608 56.368 52.608L56.176 52.544H56.112L56.048 52.608V52.672L56.112 52.864C56.112 52.992 55.5147 53.4827 54.32 54.336C53.168 55.1893 52.592 55.7013 52.592 55.872C52.336 56.128 52.208 56.2773 52.208 56.32C51.3547 56.7893 50.7573 57.2587 50.416 57.728C50.2453 57.728 50.0747 57.7707 49.904 57.856C49.8187 57.8987 49.6053 58.112 49.264 58.496C48.9653 58.9227 48.6667 59.136 48.368 59.136C48.3253 59.136 48.2613 59.1147 48.176 59.072C48.0907 59.072 48.0267 59.072 47.984 59.072C47.984 59.1147 48.0053 59.1573 48.048 59.2C48.1333 59.2853 48.176 59.3707 48.176 59.456C48.176 59.5413 48.0907 59.6267 47.92 59.712C47.7493 59.84 47.6427 59.9253 47.6 59.968C47.3867 59.9253 46.9173 60.2667 46.192 60.992C45.5093 61.7173 45.1253 62.08 45.04 62.08H44.592C44.5067 62.08 44.4213 62.1227 44.336 62.208C44.2933 62.2933 44.2933 62.3573 44.336 62.4C43.952 62.912 43.5467 63.2533 43.12 63.424C42.864 63.68 41.904 64.384 40.24 65.536C38.6187 66.688 37.7013 67.2853 37.488 67.328L37.04 67.776C36.656 67.9467 36.464 68.0533 36.464 68.096L35.76 68.672C35.6747 68.7573 35.5467 68.8213 35.376 68.864C35.2053 68.9067 35.0773 68.992 34.992 69.12C34.608 69.2907 34.0107 69.6107 33.2 70.08C32.3893 70.5493 31.9413 70.8053 31.856 70.848C31.728 70.976 31.344 71.232 30.704 71.616C30.1067 72.0427 29.7867 72.256 29.744 72.256H29.296C29.2107 72.256 29.168 72.2773 29.168 72.32C28.4853 72.832 27.312 73.4293 25.648 74.112C23.984 74.7947 22.8107 75.4133 22.128 75.968C21.8293 75.968 21.5733 76.0533 21.36 76.224C21.1467 76.2667 20.6987 76.416 20.016 76.672C19.376 76.928 18.9067 77.056 18.608 77.056C18.5653 77.056 18.5013 77.0347 18.416 76.992C18.3307 76.992 18.2667 76.992 18.224 76.992C17.9253 77.376 17.52 77.568 17.008 77.568H16.24C15.984 77.568 15.7493 77.6747 15.536 77.888H15.344C15.088 77.888 14.7467 77.9307 14.32 78.016C13.8933 78.144 13.5733 78.208 13.36 78.208C13.232 78.208 13.04 78.1867 12.784 78.144C12.528 78.1013 12.3147 78.08 12.144 78.08C11.9733 78.08 11.8667 78.1013 11.824 78.144L11.696 78.208C11.6107 78.2507 11.5467 78.272 11.504 78.272C11.376 78.272 11.184 78.208 10.928 78.08C10.7147 77.952 10.5653 77.888 10.48 77.888C10.4373 77.888 10.3093 77.9947 10.096 78.208H9.712L9.584 78.08H9.392C9.09333 78.08 8.688 78.016 8.176 77.888C7.664 77.8027 7.28 77.76 7.024 77.76C6.68267 77.504 6.29867 77.3547 5.872 77.312C4.80533 77.056 4.18667 76.8 4.016 76.544C3.93067 76.2027 3.52533 75.6693 2.8 74.944C2.032 74.2187 1.648 73.6427 1.648 73.216V73.152C1.69067 73.0667 1.69067 73.024 1.648 73.024C1.648 72.8107 1.54133 72.4907 1.328 72.064C1.072 71.68 0.965333 71.36 1.008 71.104ZM15.984 38.72C15.984 38.7627 16.0267 38.784 16.112 38.784C16.1973 38.784 16.304 38.72 16.432 38.592H16.368C16.112 38.592 15.984 38.6347 15.984 38.72ZM3.184 61.952C3.184 61.7813 3.09867 61.696 2.928 61.696C2.928 61.8667 3.01333 61.952 3.184 61.952ZM43.184 9.088H42.8C42.9707 9.17333 43.0773 9.216 43.12 9.216C43.1627 9.216 43.184 9.17333 43.184 9.088ZM45.68 6.976C45.68 7.01866 45.7013 7.04 45.744 7.04C45.7867 7.04 45.808 7.01866 45.808 6.976H45.68ZM87.9805 37.952C87.9805 37.824 88.0445 37.76 88.1725 37.76C88.2152 37.76 88.2578 37.7813 88.3005 37.824C88.3858 37.8667 88.4498 37.888 88.4925 37.888C88.5352 37.888 88.5778 37.8667 88.6205 37.824L88.7485 37.76C88.9618 37.76 89.1752 37.952 89.3885 38.336C89.6018 38.72 89.7085 39.0187 89.7085 39.232C89.7085 39.3173 89.5805 39.5093 89.3245 39.808C89.1112 40.064 88.8552 40.3413 88.5565 40.64C88.3005 40.9387 88.1512 41.1093 88.1085 41.152C88.1085 41.1947 88.1085 41.2373 88.1085 41.28L88.1725 41.408C88.1298 41.4507 88.0658 41.4933 87.9805 41.536L87.9165 41.6C87.9165 41.728 87.9805 41.792 88.1085 41.792C88.1512 41.792 88.2365 41.7707 88.3645 41.728C88.4925 41.6427 88.5992 41.6 88.6845 41.6C88.7272 41.6 88.7698 41.6213 88.8125 41.664C88.8978 41.7067 88.9618 41.728 89.0045 41.728L89.2605 41.536C89.5165 41.6213 89.6872 41.7493 89.7725 41.92C89.9005 42.048 89.9858 42.24 90.0285 42.496C90.1138 42.752 90.1992 42.944 90.2845 43.072C90.4125 43.2 90.4978 43.4133 90.5405 43.712C90.6258 44.0107 90.7325 44.224 90.8605 44.352C90.9885 44.48 91.1805 44.7147 91.4365 45.056C91.3512 45.184 91.3512 45.2907 91.4365 45.376C92.6312 46.5707 94.1032 47.168 95.8525 47.168C95.9378 47.168 95.9805 47.1467 95.9805 47.104C96.2792 46.976 96.4285 46.72 96.4285 46.336C96.4712 46.2507 96.6632 46.0587 97.0045 45.76C97.3885 45.4613 97.7512 45.1627 98.0925 44.864L98.5405 44.48L98.4765 44.416V44.352C99.4578 43.2427 100.119 42.624 100.46 42.496C100.759 42.0693 101.015 41.8773 101.229 41.92C101.271 41.92 101.442 41.728 101.741 41.344C102.039 40.96 102.231 40.768 102.317 40.768H102.637C102.807 40.5547 103.106 40.2773 103.533 39.936C104.002 39.5947 104.343 39.3173 104.556 39.104C104.685 39.104 104.983 38.976 105.452 38.72C105.965 38.464 106.263 38.2507 106.348 38.08H106.477C106.562 38.08 106.669 38.08 106.797 38.08C106.967 38.0373 107.095 38.016 107.181 38.016H107.437C107.522 38.1013 107.607 38.144 107.693 38.144C107.906 38.144 108.013 38.1227 108.013 38.08C108.141 38.08 108.205 38.1227 108.205 38.208C108.205 38.2507 108.183 38.2933 108.14 38.336L108.333 38.464C108.503 38.592 108.61 38.6773 108.653 38.72C108.61 38.848 108.61 38.9973 108.653 39.168C108.738 39.296 108.781 39.4027 108.781 39.488C108.781 39.5307 108.717 39.616 108.589 39.744C108.589 39.8293 108.61 39.872 108.653 39.872V40C108.653 40.0853 108.589 40.2347 108.461 40.448C108.333 40.6187 108.269 40.768 108.269 40.896C108.269 40.9813 108.29 41.024 108.333 41.024C108.29 41.1093 108.119 41.3227 107.82 41.664C107.565 42.0053 107.309 42.3253 107.053 42.624C106.839 42.9227 106.733 43.0933 106.733 43.136V43.52C106.733 43.6907 106.434 43.9893 105.837 44.416C105.239 44.8 104.962 45.12 105.005 45.376L104.941 45.44L104.749 45.376C104.578 45.376 104.236 45.5467 103.724 45.888C103.213 46.2293 102.914 46.4853 102.828 46.656C102.658 46.6987 102.487 46.8053 102.317 46.976C102.146 47.1467 102.018 47.2533 101.932 47.296C101.847 47.296 101.421 47.4027 100.653 47.616C100.524 47.7867 100.183 47.9573 99.6285 48.128C99.0738 48.2987 98.6685 48.384 98.4125 48.384L98.3485 48.512C98.3058 48.5973 98.2632 48.64 98.2205 48.64C98.1778 48.64 98.1138 48.6187 98.0285 48.576C97.9432 48.5333 97.8792 48.512 97.8365 48.512C97.1538 48.512 96.5778 48.7893 96.1085 49.344C95.6818 49.8987 95.4472 50.5173 95.4045 51.2L95.2765 51.392C95.2765 51.52 95.2552 51.648 95.2125 51.776C95.1698 51.904 95.1485 52.0107 95.1485 52.096C95.1485 52.1387 95.1698 52.2027 95.2125 52.288C95.2552 52.3733 95.2765 52.4373 95.2765 52.48C95.2765 52.5227 95.2552 52.608 95.2125 52.736C95.1698 52.864 95.1485 52.9493 95.1485 52.992C95.1485 53.0773 95.1698 53.184 95.2125 53.312C95.2552 53.3973 95.2765 53.4613 95.2765 53.504C95.2765 53.5467 95.2765 53.568 95.2765 53.568L95.2125 53.696C95.2125 53.952 95.3192 54.208 95.5325 54.464C95.7458 54.6773 96.0232 54.9333 96.3645 55.232C96.7058 55.488 96.8978 55.6373 96.9405 55.68C96.9832 55.68 97.0258 55.68 97.0685 55.68C97.1112 55.6373 97.1538 55.616 97.1965 55.616C97.3245 55.616 97.4525 55.68 97.5805 55.808C97.7512 55.8933 97.8792 55.936 97.9645 55.936C98.0925 55.936 98.1992 55.9147 98.2845 55.872C99.1378 55.872 99.7778 55.808 100.205 55.68C100.461 55.3387 100.973 55.168 101.741 55.168L102.317 54.784C102.658 54.528 103.042 54.272 103.469 54.016C103.895 53.7173 104.151 53.504 104.236 53.376C104.45 53.0773 105.41 52.3307 107.117 51.136C108.823 49.8987 109.805 49.28 110.061 49.28C110.231 49.28 110.317 49.3653 110.317 49.536C109.933 50.432 109.165 51.2427 108.013 51.968L107.373 52.352C107.117 52.5227 106.69 52.8853 106.093 53.44C105.538 53.9947 105.069 54.336 104.685 54.464C104.428 54.8907 103.938 55.4027 103.213 56C102.53 56.5547 101.975 56.832 101.549 56.832C101.506 56.832 101.442 56.8107 101.356 56.768C101.314 56.7253 101.271 56.704 101.229 56.704C101.1 56.704 100.93 56.8107 100.716 57.024C100.503 57.2373 100.247 57.344 99.9485 57.344C99.9058 57.344 99.8418 57.3653 99.7565 57.408C99.7138 57.4933 99.6712 57.536 99.6285 57.536H99.4365C99.3938 57.4933 99.2232 57.472 98.9245 57.472C98.7965 57.472 98.6258 57.4933 98.4125 57.536C98.1992 57.5787 98.0285 57.6 97.9005 57.6C97.6445 57.6 97.2605 57.472 96.7485 57.216C96.2792 56.96 95.9378 56.832 95.7245 56.832L95.1485 56.512C94.9352 56.4267 94.7432 56.256 94.5725 56C94.4018 55.744 94.2738 55.5307 94.1885 55.36C94.1032 55.1467 93.9965 54.8693 93.8685 54.528C93.7832 54.144 93.7192 53.9093 93.6765 53.824C93.6765 53.3973 93.5912 52.8427 93.4205 52.16C93.6338 51.9467 93.7405 51.648 93.7405 51.264V51.2C93.6978 51.1573 93.6765 51.1147 93.6765 51.072C93.6765 50.9013 93.7832 50.6453 93.9965 50.304C94.2098 49.92 94.3378 49.6213 94.3805 49.408C94.4232 49.3653 94.4872 49.3013 94.5725 49.216C94.7005 49.1307 94.7858 49.0667 94.8285 49.024V48.768C94.8285 48.6827 94.8072 48.6187 94.7645 48.576C92.8445 48.0213 91.3085 47.36 90.1565 46.592C89.9432 46.464 89.7085 46.08 89.4525 45.44C89.1965 44.7573 88.9832 44.3733 88.8125 44.288C88.7272 44.288 88.6418 44.2667 88.5565 44.224C88.5138 44.1813 88.4498 44.16 88.3645 44.16C88.2365 44.16 88.0018 44.288 87.6605 44.544C87.3618 44.7573 87.2125 44.9067 87.2125 44.992V45.056C87.2552 45.0987 87.2765 45.1413 87.2765 45.184C86.4658 45.8667 86.0178 46.336 85.9325 46.592L85.6125 46.912C85.5272 47.2107 85.3565 47.5307 85.1005 47.872C84.8445 48.1707 84.5458 48.4907 84.2045 48.832C83.8632 49.1733 83.6285 49.4293 83.5005 49.6C83.5005 49.728 83.3725 49.9627 83.1165 50.304C82.9032 50.6453 82.7538 50.8373 82.6685 50.88L82.1565 51.456C81.9858 51.6267 81.5378 52.3093 80.8125 53.504C80.1298 54.656 79.8098 55.2533 79.8525 55.296C79.3405 55.808 79.0845 56.1707 79.0845 56.384C79.0845 56.512 79.1058 56.6187 79.1485 56.704C78.9352 56.832 78.8285 56.9173 78.8285 56.96C78.8285 57.0027 78.8498 57.0453 78.8925 57.088C78.8498 57.1307 78.8285 57.1733 78.8285 57.216C78.6578 57.1733 78.4445 57.216 78.1885 57.344C77.9752 57.5147 77.8045 57.6 77.6765 57.6C77.5058 57.6 77.3138 57.472 77.1005 57.216C76.8872 57.0027 76.7378 56.7893 76.6525 56.576C76.6952 56.5333 76.7592 56.4053 76.8445 56.192C76.9298 56.0213 77.0152 55.8507 77.1005 55.68C77.1858 55.4667 77.2498 55.36 77.2925 55.36H77.6125C77.6125 55.2747 77.5912 55.2107 77.5485 55.168C77.5485 55.0827 77.5485 55.0187 77.5485 54.976C77.8472 54.592 77.9965 54.2933 77.9965 54.08C77.9965 54.0373 77.9752 53.9733 77.9325 53.888C77.9325 53.8027 77.9325 53.7387 77.9325 53.696C77.9325 53.568 77.9965 53.504 78.1245 53.504C78.1672 53.504 78.2098 53.5253 78.2525 53.568H78.3805C78.4658 53.568 78.5085 53.5253 78.5085 53.44C78.5085 53.3973 78.4872 53.3547 78.4445 53.312C78.4445 53.184 78.5938 52.9493 78.8925 52.608C79.2338 52.2667 79.4045 52.0533 79.4045 51.968C79.4045 51.84 79.3405 51.776 79.2125 51.776C78.9992 51.776 78.7218 51.9253 78.3805 52.224C78.0818 52.48 77.8685 52.6293 77.7405 52.672C77.6552 52.7147 77.5698 52.8853 77.4845 53.184C77.3992 53.44 77.2925 53.6107 77.1645 53.696C76.9512 53.696 76.6098 53.8667 76.1405 54.208C75.6712 54.5067 75.4152 54.7627 75.3725 54.976C75.1592 54.976 74.8392 55.1467 74.4125 55.488C74.0285 55.8293 73.7298 55.9787 73.5165 55.936C73.3885 56.064 73.1965 56.192 72.9405 56.32C72.7272 56.448 72.5778 56.5547 72.4925 56.64C72.3218 56.64 72.0872 56.6613 71.7885 56.704C71.4898 56.7467 71.2765 56.768 71.1485 56.768C71.0632 56.768 70.9138 56.7467 70.7005 56.704C70.5298 56.704 70.4232 56.704 70.3805 56.704C69.4845 56.192 68.8872 55.4027 68.5885 54.336C68.5458 54.2507 68.4605 54.208 68.3325 54.208C68.0765 54.208 67.8205 54.336 67.5645 54.592C67.3085 54.8053 67.0312 55.1253 66.7325 55.552C66.4765 55.936 66.3058 56.1707 66.2205 56.256C66.0925 56.3413 65.6232 56.7253 64.8125 57.408C64.0018 58.0907 63.5325 58.4533 63.4045 58.496C63.3192 58.4533 63.2338 58.432 63.1485 58.432C63.0205 58.432 62.9352 58.5173 62.8925 58.688C62.4658 58.8587 62.0818 58.944 61.7405 58.944C61.6552 58.944 61.5058 58.9013 61.2925 58.816C61.0792 58.7733 60.9298 58.752 60.8445 58.752C60.0338 58.2827 59.6285 57.5787 59.6285 56.64L59.5645 56.512C59.4792 56.384 59.4365 56.2987 59.4365 56.256L59.5005 56.192C59.5432 56.1493 59.5645 56.1067 59.5645 56.064V55.936C59.5218 55.8933 59.5005 55.8507 59.5005 55.808C59.5005 55.7227 59.5218 55.6373 59.5645 55.552L59.6925 55.424C59.6925 55.3813 59.6712 55.3387 59.6285 55.296C59.6285 55.2533 59.6285 55.2107 59.6285 55.168L59.7565 54.912V54.656C59.7565 54.5707 59.7352 54.464 59.6925 54.336C59.6925 54.1653 59.6925 54.0373 59.6925 53.952C59.6925 53.824 59.7352 53.7173 59.8205 53.632C59.7778 53.632 59.7565 53.568 59.7565 53.44C59.7565 53.3973 59.7992 53.312 59.8845 53.184C59.9698 53.056 60.0125 52.9493 60.0125 52.864L59.9485 52.736C59.9485 52.6507 59.9485 52.5867 59.9485 52.544C59.9485 52.2453 60.2685 51.712 60.9085 50.944C60.9085 50.9013 60.8872 50.8373 60.8445 50.752C60.8445 50.624 60.8658 50.56 60.9085 50.56C60.9938 50.5173 61.0792 50.496 61.1645 50.496C61.2498 50.496 61.3138 50.4747 61.3565 50.432C61.2285 50.304 61.1645 50.2187 61.1645 50.176C61.3352 50.048 61.5272 49.8133 61.7405 49.472C61.9965 49.088 62.1672 48.832 62.2525 48.704C62.2098 48.5333 62.3378 48.2987 62.6365 48C62.9352 47.7013 63.0845 47.488 63.0845 47.36C63.0845 47.3173 63.0632 47.2533 63.0205 47.168L63.3405 46.976C63.5112 46.8053 63.7885 46.4 64.1725 45.76C64.5992 45.0773 65.0045 44.5013 65.3885 44.032C65.8152 43.5627 66.2205 43.2427 66.6045 43.072C66.6472 42.944 66.8818 42.7733 67.3085 42.56C67.7352 42.304 67.9485 42.1333 67.9485 42.048V41.792C67.9485 41.6213 68.4392 41.3227 69.4205 40.896C70.4018 40.4267 70.9352 40.1067 71.0205 39.936C71.0205 39.8933 71.0845 39.872 71.2125 39.872C71.3405 39.8293 71.4685 39.7867 71.5965 39.744H71.7885V39.552C71.8312 39.552 71.8738 39.5307 71.9165 39.488L72.1085 39.552V39.744C72.1085 39.7867 72.1512 39.808 72.2365 39.808H72.4925L73.0685 40.128L73.1965 40.256L73.1325 40.32V40.384C73.1752 40.4267 73.2178 40.448 73.2605 40.448C73.2178 40.6613 73.2818 40.9387 73.4525 41.28C73.6232 41.6213 73.7085 41.8773 73.7085 42.048L73.6445 42.176C73.6872 42.2613 73.7725 42.304 73.9005 42.304C74.0285 42.304 74.2418 42.24 74.5405 42.112C74.8392 41.984 75.0738 41.92 75.2445 41.92C75.4578 41.92 75.6072 41.984 75.6925 42.112V42.24C75.6925 42.368 75.6925 42.432 75.6925 42.432L75.6285 42.496C75.6285 42.5387 75.6498 42.56 75.6925 42.56L75.8205 42.688C75.8205 42.7307 75.7778 42.7947 75.6925 42.88C75.6498 42.9227 75.6285 42.9653 75.6285 43.008V43.392C75.3725 43.776 74.8178 44.7573 73.9645 46.336C73.1538 47.872 72.4072 48.96 71.7245 49.6C71.7245 49.6853 71.7458 49.7707 71.7885 49.856C71.8312 49.8987 71.8525 49.9413 71.8525 49.984C71.7672 50.0267 71.6605 50.048 71.5325 50.048L71.4685 49.984C71.3832 49.9413 71.3192 49.92 71.2765 49.92C71.2765 49.9627 71.2978 50.0267 71.3405 50.112L71.4045 50.176C71.4045 50.3893 71.2125 50.7093 70.8285 51.136C70.4872 51.5627 70.3165 51.904 70.3165 52.16L70.3805 52.288C70.4232 52.3307 70.4445 52.3733 70.4445 52.416L70.3805 52.544C70.3378 52.5867 70.3165 52.6293 70.3165 52.672C70.3165 52.8 70.2952 52.928 70.2525 53.056C70.2525 53.184 70.2525 53.2907 70.2525 53.376C70.2525 53.4187 70.2738 53.4827 70.3165 53.568C70.3592 53.6533 70.3805 53.7173 70.3805 53.76C70.3805 53.8027 70.3592 53.8667 70.3165 53.952C70.2738 53.9947 70.2525 54.0373 70.2525 54.08C70.2525 54.1227 70.2738 54.1867 70.3165 54.272C70.4018 54.3147 70.4445 54.4 70.4445 54.528L70.9565 55.04L71.0205 55.104C71.3192 55.104 72.0872 54.8267 73.3245 54.272C74.5618 53.6747 75.2018 53.2267 75.2445 52.928C75.3298 52.928 75.5005 52.8213 75.7565 52.608C76.5672 52.1387 77.7832 51.2 79.4045 49.792C81.0258 48.384 81.8578 47.424 81.9005 46.912H81.9645L82.3485 46.784C82.4765 46.7413 82.6472 46.528 82.8605 46.144C83.1165 45.7173 83.2658 45.3973 83.3085 45.184C83.4365 45.0987 83.7565 44.672 84.2685 43.904C84.7805 43.136 85.0152 42.6667 84.9725 42.496C84.9298 42.496 84.9085 42.4533 84.9085 42.368C85.5058 41.7707 85.8258 41.472 85.8685 41.472V41.152C85.8685 41.0667 85.9538 40.9387 86.1245 40.768C86.3378 40.5973 86.4232 40.384 86.3805 40.128C86.5512 40.0853 86.7645 39.872 87.0205 39.488C87.3192 39.0613 87.4685 38.7413 87.4685 38.528L87.9805 37.952ZM106.028 39.872C105.858 39.9147 105.58 40.0853 105.196 40.384C104.813 40.64 104.578 40.7893 104.493 40.832C104.493 41.0453 104.279 41.152 103.853 41.152L103.149 41.856L102.957 41.92L102.573 42.304C102.317 42.3467 101.804 42.7307 101.036 43.456C100.311 44.1387 99.9485 44.5867 99.9485 44.8C99.8632 44.8853 99.6498 45.056 99.3085 45.312C99.0098 45.5253 98.7325 45.7387 98.4765 45.952C98.2632 46.1653 98.1565 46.3573 98.1565 46.528C98.1565 46.6987 98.3058 46.784 98.6045 46.784C98.7752 46.784 98.9672 46.72 99.1805 46.592H99.6925C99.8205 46.592 99.9272 46.4853 100.013 46.272C100.098 46.0587 100.183 45.952 100.269 45.952C100.311 45.952 100.375 45.9733 100.46 46.016C100.588 46.016 100.674 46.016 100.716 46.016C100.802 46.016 101.143 45.8667 101.741 45.568C101.826 45.4827 102.295 45.12 103.149 44.48C104.002 43.84 104.77 43.2427 105.452 42.688C106.135 42.1333 106.477 41.7707 106.477 41.6V41.472C106.434 41.4293 106.434 41.3867 106.477 41.344C106.477 41.3013 106.519 41.2373 106.604 41.152C106.69 41.0667 106.754 41.0027 106.797 40.96C106.797 40.832 106.839 40.6827 106.924 40.512C107.01 40.3413 107.053 40.2133 107.053 40.128C107.053 39.9147 106.903 39.808 106.604 39.808C106.562 39.808 106.477 39.8293 106.348 39.872C106.221 39.872 106.114 39.872 106.028 39.872ZM103.149 40.576V40.512V40.576ZM102.764 41.152V41.088V41.152ZM69.8045 41.536L69.8685 41.472C69.8685 41.3867 69.7832 41.344 69.6125 41.344C69.6125 41.472 69.6765 41.536 69.8045 41.536ZM67.3725 43.968C67.3298 44.096 67.1165 44.224 66.7325 44.352C66.7752 44.5227 66.7112 44.6933 66.5405 44.864C66.4125 44.992 66.1992 45.1413 65.9005 45.312L65.4525 45.568L65.3885 45.76C65.3885 45.8027 65.3885 45.8667 65.3885 45.952C65.4312 45.9947 65.4525 46.0373 65.4525 46.08C65.4525 46.208 65.1965 46.4853 64.6845 46.912C64.1725 47.3387 63.9165 47.5947 63.9165 47.68C63.9165 47.7227 63.9378 47.744 63.9805 47.744L64.1085 47.872C64.1085 47.9573 63.9378 48.2987 63.5965 48.896C63.2978 49.4933 63.1272 49.8773 63.0845 50.048C63.0418 50.0907 62.9565 50.1333 62.8285 50.176C62.7432 50.2187 62.7005 50.2827 62.7005 50.368C62.7005 50.4107 62.7218 50.4747 62.7645 50.56L62.8285 50.688C62.8285 50.7733 62.7005 50.9653 62.4445 51.264C62.1885 51.52 62.0605 51.6693 62.0605 51.712V52.224C61.5912 52.608 61.3565 53.12 61.3565 53.76C61.3565 53.8027 61.3778 53.8453 61.4205 53.888C61.4632 53.9307 61.4845 53.9733 61.4845 54.016L60.8445 54.72C61.1005 55.0613 61.2285 55.296 61.2285 55.424C61.2285 55.4667 61.2285 55.488 61.2285 55.488L61.1645 55.616V56L61.2285 56.256V56.768C61.1432 56.768 61.1005 56.8107 61.1005 56.896C61.1005 57.152 61.3352 57.28 61.8045 57.28C62.3165 57.28 63.1912 56.7893 64.4285 55.808C65.7085 54.8267 66.3698 54.1013 66.4125 53.632C67.9912 52.3947 68.8445 51.5627 68.9725 51.136L69.3565 50.688C69.3565 50.6453 69.3352 50.624 69.2925 50.624C69.2925 50.624 69.2925 50.6027 69.2925 50.56L69.6765 50.048C69.6765 49.92 69.6978 49.7707 69.7405 49.6C69.8258 49.4293 69.8685 49.3013 69.8685 49.216C70.5085 48.576 70.8712 47.8293 70.9565 46.976C72.1085 45.44 72.6845 44.4587 72.6845 44.032C72.6845 43.904 72.6418 43.7547 72.5565 43.584C72.4712 43.4133 72.4285 43.264 72.4285 43.136C72.4285 43.0933 72.4498 43.0293 72.4925 42.944C72.5352 42.816 72.5565 42.7307 72.5565 42.688L72.4925 42.624C72.4498 42.5813 72.4285 42.5387 72.4285 42.496L72.4925 42.432V42.368C72.4498 42.3253 72.4285 42.2827 72.4285 42.24C72.4285 42.1973 72.4498 42.176 72.4925 42.176C72.4925 41.92 72.3858 41.728 72.1725 41.6C71.9592 41.4293 71.7458 41.344 71.5325 41.344C70.9352 41.344 70.1885 41.6427 69.2925 42.24C68.3965 42.8373 67.7565 43.4133 67.3725 43.968ZM107.181 42.112V42.048V42.112ZM85.1005 42.432C85.1005 42.4747 85.1218 42.5173 85.1645 42.56C85.2498 42.56 85.2925 42.5387 85.2925 42.496L85.1005 42.432ZM85.9965 44.16C85.9965 44.2453 86.0178 44.288 86.0605 44.288C86.2312 44.288 86.4658 44.1387 86.7645 43.84C86.7218 43.84 86.6792 43.8187 86.6365 43.776C86.6365 43.7333 86.6578 43.6907 86.7005 43.648C86.7005 43.5627 86.8285 43.4133 87.0845 43.2C87.3405 42.9867 87.4685 42.7733 87.4685 42.56V42.432C87.3405 42.432 87.0632 42.688 86.6365 43.2C86.2098 43.712 85.9965 44.032 85.9965 44.16ZM73.0045 42.752L73.0685 42.816C73.1538 42.816 73.1965 42.752 73.1965 42.624L73.0045 42.752ZM88.8765 42.816L88.9405 42.752H88.8765V42.816ZM67.2445 43.328C67.2445 43.2 67.1805 43.136 67.0525 43.136C66.9245 43.136 66.8392 43.1573 66.7965 43.2C66.7965 43.3707 66.8818 43.456 67.0525 43.456C67.1805 43.456 67.2445 43.4133 67.2445 43.328ZM88.8125 43.392C88.7698 43.264 88.6845 43.2 88.5565 43.2C88.5565 43.2427 88.6418 43.3067 88.8125 43.392ZM105.196 43.584H105.132H105.196ZM99.6285 43.968C99.6712 43.968 99.6925 43.9467 99.6925 43.904C99.6925 43.776 99.6285 43.712 99.5005 43.712C99.5005 43.8827 99.5432 43.968 99.6285 43.968ZM99.8205 44.096C99.8632 44.096 99.9058 44.0747 99.9485 44.032C99.9058 44.032 99.8632 44.0533 99.8205 44.096ZM99.5645 44.352C99.5645 44.48 99.6285 44.544 99.7565 44.544C99.7565 44.3733 99.7352 44.288 99.6925 44.288L99.5645 44.352ZM72.8125 46.336C72.8552 46.336 72.9192 46.2933 73.0045 46.208C73.0898 46.1227 73.1538 46.08 73.1965 46.08C72.9405 46.08 72.8125 46.1653 72.8125 46.336ZM84.5885 46.4C84.7592 46.4 84.8445 46.2933 84.8445 46.08C84.6738 46.08 84.5885 46.1867 84.5885 46.4ZM97.5805 46.272H97.6445H97.5805ZM98.6045 46.912V46.848V46.912ZM72.3005 47.104L72.4925 47.168L72.4285 47.04C72.3432 47.04 72.3005 47.0613 72.3005 47.104ZM72.4925 47.68V47.616H72.4285L72.4925 47.68ZM62.3805 48.896C62.5512 48.896 62.6365 48.8533 62.6365 48.768C62.6365 48.7253 62.5938 48.704 62.5085 48.704C62.4232 48.704 62.3805 48.768 62.3805 48.896ZM82.6045 49.088H82.6685V49.024H82.6045V49.088ZM61.9965 50.112L62.2525 50.176C62.2525 50.048 62.2098 49.984 62.1245 49.984L61.9965 50.112ZM94.4445 50.368C94.4445 50.4533 94.4872 50.496 94.5725 50.496C94.6578 50.496 94.7005 50.432 94.7005 50.304C94.5298 50.304 94.4445 50.3253 94.4445 50.368ZM61.4845 51.008C61.4845 51.0507 61.5272 51.072 61.6125 51.072C61.7832 51.072 61.8685 51.008 61.8685 50.88C61.8685 50.8373 61.8258 50.816 61.7405 50.816C61.5698 50.816 61.4845 50.88 61.4845 51.008ZM60.7805 51.84C60.7805 51.968 60.8445 52.032 60.9725 52.032V51.968C61.0152 51.9253 61.0365 51.8827 61.0365 51.84C61.0365 51.7547 60.9938 51.712 60.9085 51.712C60.8232 51.712 60.7805 51.7547 60.7805 51.84ZM68.4605 52.16V52.096V52.16ZM60.8445 52.608C60.8018 52.6507 60.7805 52.6933 60.7805 52.736C60.7805 52.7787 60.8232 52.8 60.9085 52.8C60.9938 52.8 61.0365 52.7787 61.0365 52.736C61.0365 52.6507 60.9725 52.608 60.8445 52.608ZM75.5005 53.568C75.6285 53.568 75.6925 53.504 75.6925 53.376C75.5645 53.376 75.5005 53.44 75.5005 53.568ZM59.9485 53.632C59.9485 53.76 60.0125 53.824 60.1405 53.824C60.1832 53.7813 60.2045 53.7387 60.2045 53.696C60.2045 53.6107 60.1405 53.568 60.0125 53.568C59.9272 53.568 59.9058 53.5893 59.9485 53.632ZM94.9565 53.76H95.1485L95.0845 53.696C94.9992 53.696 94.9565 53.7173 94.9565 53.76ZM101.868 55.36V55.296V55.36ZM65.4525 55.424C65.3672 55.424 65.3245 55.4453 65.3245 55.488C65.4098 55.488 65.4525 55.4667 65.4525 55.424ZM203.301 21.632C203.429 21.5467 203.877 21.0773 204.645 20.224C205.413 19.328 206.032 18.88 206.501 18.88C206.885 18.88 207.226 18.9867 207.525 19.2C207.824 19.4133 207.973 19.712 207.973 20.096C207.973 21.0347 207.312 22.2933 205.989 23.872C205.989 23.9573 206.01 24.0427 206.053 24.128C206.138 24.1707 206.181 24.2133 206.181 24.256C206.181 24.2987 206.032 24.4053 205.733 24.576C205.477 24.704 205.349 24.7893 205.349 24.832C205.178 25.088 204.88 25.5787 204.453 26.304C204.368 26.432 204.176 26.6667 203.877 27.008C203.578 27.3067 203.322 27.6053 203.109 27.904C202.938 28.2027 202.853 28.4587 202.853 28.672C202.64 28.8853 202.32 29.2907 201.893 29.888C201.509 30.4427 201.189 30.8053 200.933 30.976C200.89 31.1893 200.741 31.424 200.485 31.68V31.872L199.717 32.576V32.896L198.949 33.664C198.394 34.2187 198.117 34.752 198.117 35.264C198.032 35.392 197.84 35.584 197.541 35.84C197.242 36.096 197.072 36.2453 197.029 36.288C196.944 36.4587 196.624 36.9067 196.069 37.632C195.557 38.3573 195.28 38.72 195.237 38.72H195.045C195.045 38.6347 195.066 38.5707 195.109 38.528C195.152 38.4853 195.173 38.4427 195.173 38.4C195.173 38.3573 195.13 38.336 195.045 38.336V38.912C195.045 39.296 194.405 40.128 193.125 41.408C191.888 42.6453 191.269 43.456 191.269 43.84C191.226 43.8827 191.141 43.9467 191.013 44.032C190.885 44.0747 190.842 44.16 190.885 44.288C190.8 44.3733 190.16 44.9493 188.965 46.016C187.813 47.0827 187.237 47.6373 187.237 47.68L186.789 48.128C186.704 48.1707 186.64 48.2133 186.597 48.256C186.554 48.3413 186.384 48.5333 186.085 48.832L186.021 49.088C185.808 49.3013 185.594 49.728 185.381 50.368C185.168 50.9653 184.933 51.3493 184.677 51.52L184.613 52.032C184.613 52.0747 184.549 52.1813 184.421 52.352C184.293 52.5227 184.229 52.6293 184.229 52.672C184.229 52.7147 184.25 52.7573 184.293 52.8V52.928C184.293 52.9707 184.229 53.0773 184.101 53.248C183.973 53.376 183.909 53.504 183.909 53.632C183.909 53.888 183.824 54.0587 183.653 54.144C183.653 54.1867 183.653 54.2507 183.653 54.336C183.696 54.3787 183.717 54.4213 183.717 54.464C183.717 54.6347 183.61 54.9333 183.397 55.36C183.184 55.7867 183.077 56.1067 183.077 56.32C183.077 56.3627 183.098 56.4053 183.141 56.448C183.226 56.5333 183.269 56.5973 183.269 56.64C183.226 56.6827 183.141 56.704 183.013 56.704C182.928 56.7467 182.864 56.7893 182.821 56.832V57.408C182.736 57.408 182.693 57.472 182.693 57.6L182.757 57.728V57.92L182.565 58.688C182.565 58.816 182.544 59.008 182.501 59.264C182.501 59.5627 182.501 59.7973 182.501 59.968C182.501 60.1813 182.672 60.4373 183.013 60.736C183.397 61.0773 183.589 61.376 183.589 61.632C183.589 61.6747 183.546 61.696 183.461 61.696C183.376 61.7387 183.333 61.8027 183.333 61.888V62.08C183.333 62.464 183.269 62.656 183.141 62.656C183.098 62.656 183.056 62.592 183.013 62.464C182.97 62.3787 182.906 62.336 182.821 62.336C182.778 62.336 182.736 62.3787 182.693 62.464C182.65 62.592 182.608 62.656 182.565 62.656C182.48 62.656 182.16 62.464 181.605 62.08C181.05 61.7387 180.773 61.504 180.773 61.376L180.837 61.248V61.12L180.389 60.224C180.432 60.1813 180.538 60.0747 180.709 59.904C180.88 59.7333 180.965 59.6267 180.965 59.584C180.965 59.4987 180.944 59.4133 180.901 59.328C180.901 59.2427 180.901 59.1787 180.901 59.136C180.901 59.008 180.922 58.7733 180.965 58.432C181.05 58.1333 181.093 57.8987 181.093 57.728C181.178 57.6427 181.221 57.536 181.221 57.408C181.221 57.3227 181.178 57.216 181.093 57.088C181.05 57.0027 181.029 56.9387 181.029 56.896C181.029 56.64 181.157 56.2347 181.413 55.68C181.712 55.1253 181.882 54.784 181.925 54.656C181.925 54.6133 181.946 54.592 181.989 54.592C182.032 54.592 182.053 54.5707 182.053 54.528V54.208C182.181 54.1227 182.245 54.0587 182.245 54.016C182.245 52.864 182.394 52.288 182.693 52.288C182.736 52.288 182.778 52.3307 182.821 52.416C182.864 52.4587 182.928 52.48 183.013 52.48C183.141 52.48 183.205 52.4587 183.205 52.416C183.162 52.3733 183.056 52.2667 182.885 52.096C182.757 51.9253 182.672 51.7973 182.629 51.712H182.501C182.33 51.712 182.224 51.7973 182.181 51.968H181.925C181.413 52.3947 181.072 52.6933 180.901 52.864C180.56 52.8213 179.536 53.376 177.829 54.528C176.165 55.6373 175.098 56.2347 174.629 56.32L173.541 56.896C172.986 56.896 172.176 57.1947 171.109 57.792C170.981 57.8347 170.853 57.856 170.725 57.856C170.682 57.856 170.64 57.8347 170.597 57.792C170.554 57.792 170.512 57.792 170.469 57.792C170.384 57.792 170.277 57.8133 170.149 57.856C170.021 57.9413 169.914 57.984 169.829 57.984C169.744 57.984 169.658 57.9627 169.573 57.92C169.488 57.8773 169.402 57.856 169.317 57.856L169.125 57.984C168.826 57.984 168.08 57.3867 166.885 56.192L166.821 56.128H166.757C166.714 56.128 166.65 56.1707 166.565 56.256C166.522 56.384 166.458 56.448 166.373 56.448C166.33 56.448 166.266 56.4267 166.181 56.384C166.138 56.3413 166.096 56.32 166.053 56.32C165.925 56.32 165.754 56.3627 165.541 56.448C165.37 56.5333 165.242 56.576 165.157 56.576H165.093L164.965 56.512C164.794 56.5973 164.709 56.6827 164.709 56.768H164.581L164.453 56.704C164.41 56.6613 164.368 56.64 164.325 56.64L164.197 56.704L164.069 56.768C164.026 56.768 163.984 56.768 163.941 56.768L163.813 56.704C163.77 56.704 163.706 56.7253 163.621 56.768C163.578 56.8107 163.536 56.832 163.493 56.832C163.152 56.832 162.704 56.6613 162.149 56.32C161.637 55.9787 161.232 55.808 160.933 55.808V55.488C160.933 55.4027 160.848 55.3387 160.677 55.296C160.549 55.2107 160.485 55.1253 160.485 55.04L160.421 54.272C160.421 54.2293 160.357 54.1653 160.229 54.08C160.144 53.9947 160.058 53.9093 159.973 53.824C159.888 53.696 159.845 53.568 159.845 53.44L159.909 53.312L159.973 53.184V52.608L159.909 52.48V52.288C159.909 52.0747 159.952 51.7333 160.037 51.264C160.122 50.752 160.165 50.3893 160.165 50.176C160.165 50.1333 160.144 50.0693 160.101 49.984V49.92C160.101 49.7067 160.165 49.536 160.293 49.408C160.336 49.1947 160.506 48.704 160.805 47.936C161.146 47.168 161.274 46.6133 161.189 46.272L161.381 46.08V45.824C161.381 45.7813 161.488 45.7173 161.701 45.632L161.893 45.504V45.312C161.893 45.0133 161.829 44.864 161.701 44.864C161.445 44.864 161.146 45.056 160.805 45.44C160.506 45.7813 160.272 45.9733 160.101 46.016C159.888 46.272 159.653 46.4427 159.397 46.528C158.928 46.912 158.714 47.2107 158.757 47.424L158.693 47.488H158.309C158.096 47.488 157.562 47.872 156.709 48.64C155.898 49.3653 155.472 49.8773 155.429 50.176C155.258 50.176 155.066 50.24 154.853 50.368C154.682 50.496 154.49 50.688 154.277 50.944C154.106 51.1573 153.978 51.3067 153.893 51.392C153.722 51.392 153.573 51.456 153.445 51.584C153.317 51.6693 153.168 51.8187 152.997 52.032C152.826 52.2027 152.72 52.3093 152.677 52.352C152.506 52.4373 152.144 52.7573 151.589 53.312C151.034 53.8667 150.522 54.3787 150.053 54.848C149.584 55.3173 149.306 55.552 149.221 55.552C149.178 55.552 149.114 55.5307 149.029 55.488C148.986 55.4453 148.944 55.424 148.901 55.424C148.858 55.424 148.837 55.488 148.837 55.616L148.773 55.808C148.602 55.6373 148.474 55.552 148.389 55.552C148.005 56.064 147.386 56.512 146.533 56.896C145.338 57.7067 144.592 58.0693 144.293 57.984L143.845 58.432C143.76 58.5173 143.674 58.56 143.589 58.56C143.546 58.56 143.482 58.56 143.397 58.56L143.269 58.496C143.141 58.496 143.013 58.5387 142.885 58.624C142.757 58.752 142.629 58.816 142.501 58.816C142.416 58.816 142.352 58.7947 142.309 58.752C142.266 58.752 142.224 58.752 142.181 58.752C141.797 59.136 141.562 59.328 141.477 59.328C141.434 59.328 141.413 59.3067 141.413 59.264C141.413 59.264 141.392 59.264 141.349 59.264C141.306 59.264 141.285 59.3067 141.285 59.392L141.221 59.52C140.453 59.6053 140.005 59.7333 139.877 59.904C139.664 59.776 139.557 59.8187 139.557 60.032L139.301 59.968L139.045 60.096L138.853 59.904L138.789 59.84C138.704 59.84 138.576 59.8827 138.405 59.968C138.234 60.0533 138.106 60.096 138.021 60.096C137.85 60.096 137.616 60.0107 137.317 59.84C137.061 59.6693 136.848 59.584 136.677 59.584C136.634 59.5413 136.592 59.4987 136.549 59.456C136.549 59.4133 136.528 59.3707 136.485 59.328C136.442 59.2853 136.378 59.2427 136.293 59.2L136.165 59.072V58.688C135.994 58.56 135.866 58.432 135.781 58.304C135.781 58.176 135.76 58.0053 135.717 57.792C135.717 57.5787 135.717 57.408 135.717 57.28C135.589 57.152 135.525 57.0453 135.525 56.96C135.525 56.9173 135.525 56.8533 135.525 56.768C135.568 56.7253 135.589 56.6827 135.589 56.64V56.512V56.192C135.589 56.0213 135.61 55.7867 135.653 55.488C135.696 55.1467 135.717 54.8693 135.717 54.656L136.037 53.824V53.632L135.973 53.568H135.845C135.717 53.568 135.653 53.5893 135.653 53.632L135.141 54.08L134.885 54.208L130.021 57.664C129.978 57.664 129.914 57.6427 129.829 57.6C129.786 57.6 129.744 57.6 129.701 57.6C129.616 57.6 129.061 57.8987 128.037 58.496C127.013 59.0933 126.48 59.4347 126.437 59.52C126.352 59.52 126.266 59.4987 126.181 59.456C126.096 59.456 126.032 59.456 125.989 59.456C125.861 59.456 125.712 59.52 125.541 59.648C125.37 59.8187 125.242 59.904 125.157 59.904C125.114 59.904 125.072 59.8613 125.029 59.776C124.944 59.6907 124.858 59.648 124.773 59.648C124.73 59.648 124.688 59.648 124.645 59.648C124.56 59.6907 124.496 59.712 124.453 59.712C124.368 59.712 124.282 59.648 124.197 59.52C124.069 59.4347 123.984 59.392 123.941 59.392L123.877 59.456C123.792 59.456 123.728 59.456 123.685 59.456H123.621C123.45 59.2427 123.28 59.072 123.109 58.944V58.816C123.109 58.7733 123.13 58.7093 123.173 58.624C123.173 58.5813 123.173 58.5387 123.173 58.496C123.173 58.368 123.109 58.24 122.981 58.112C122.81 57.984 122.725 57.856 122.725 57.728C122.725 57.3867 122.874 56.9173 123.173 56.32V55.808C123.173 55.7227 123.344 55.5093 123.685 55.168C123.728 55.0827 124.282 54.144 125.349 52.352L126.629 51.136V50.688C126.714 50.6453 126.842 50.5387 127.013 50.368C127.226 50.1973 127.354 50.0907 127.397 50.048C127.44 49.7067 128.741 48.128 131.301 45.312C131.514 45.056 132.218 44.3733 133.413 43.264C134.608 42.1547 135.76 41.1093 136.869 40.128L138.533 38.656L138.469 38.592C138.469 38.5067 138.469 38.4427 138.469 38.4C138.469 38.3147 138.512 38.272 138.597 38.272C138.682 38.272 138.746 38.3147 138.789 38.4C138.832 38.4853 138.896 38.528 138.981 38.528H140.581C140.624 38.528 140.837 38.7413 141.221 39.168C141.605 39.552 141.818 39.7867 141.861 39.872C141.946 39.9573 141.989 40.1493 141.989 40.448C142.032 40.704 142.074 40.8747 142.117 40.96L142.053 41.024C142.01 41.1093 141.968 41.152 141.925 41.152C141.882 41.152 141.84 41.1307 141.797 41.088C141.754 41.0027 141.712 40.96 141.669 40.96C141.584 40.96 141.541 41.0027 141.541 41.088C141.541 41.1307 141.605 41.1947 141.733 41.28C141.904 41.3653 141.989 41.472 141.989 41.6C141.989 41.728 141.968 41.92 141.925 42.176C141.882 42.432 141.861 42.6453 141.861 42.816C141.861 42.9867 141.946 43.072 142.117 43.072C142.202 43.0293 142.245 42.9867 142.245 42.944V42.56C142.245 42.4747 142.394 42.304 142.693 42.048C142.992 41.7493 143.141 41.536 143.141 41.408C143.141 41.3653 143.12 41.3013 143.077 41.216C143.077 41.1307 143.077 41.0667 143.077 41.024C143.077 40.8533 143.12 40.768 143.205 40.768C143.376 40.768 143.738 40.9813 144.293 41.408C144.848 41.8347 145.125 42.1547 145.125 42.368C145.125 42.4107 145.104 42.4747 145.061 42.56C145.018 42.6453 144.997 42.7093 144.997 42.752C144.997 42.7947 145.018 42.8373 145.061 42.88C145.104 42.88 145.125 42.9227 145.125 43.008C145.125 43.0507 145.082 43.0933 144.997 43.136C144.954 43.136 144.912 43.1147 144.869 43.072L144.741 43.328C144.741 43.3707 144.762 43.4133 144.805 43.456L144.869 43.52C144.698 43.52 144.549 43.6907 144.421 44.032C144.293 44.3307 144.208 44.5013 144.165 44.544V44.608C144.08 44.608 144.037 44.5653 144.037 44.48L144.101 44.416V44.352C144.101 44.2667 144.08 44.224 144.037 44.224C143.952 44.224 143.824 44.3093 143.653 44.48C143.482 44.6507 143.397 44.7787 143.397 44.864C143.397 44.9067 143.418 44.9707 143.461 45.056L143.525 45.184C143.525 45.3547 143.461 45.44 143.333 45.44L143.077 45.184C142.949 45.184 142.885 45.312 142.885 45.568C142.885 45.6107 142.885 45.6533 142.885 45.696C142.928 45.7387 142.949 45.7813 142.949 45.824C141.541 46.848 140.752 47.936 140.581 49.088C139.856 49.6853 139.536 50.2613 139.621 50.816L139.045 51.392L138.981 51.968C138.938 52.2667 138.725 52.7573 138.341 53.44C138 54.1227 137.829 54.656 137.829 55.04V55.104C137.872 55.1893 137.893 55.2533 137.893 55.296C137.893 55.424 137.85 55.5947 137.765 55.808C137.68 56.0213 137.637 56.192 137.637 56.32C137.637 57.344 137.85 57.856 138.277 57.856C138.32 57.856 138.341 57.8347 138.341 57.792L138.469 57.728C138.512 57.728 138.597 57.792 138.725 57.92H139.429C139.557 57.92 139.792 57.8133 140.133 57.6C140.517 57.4293 140.816 57.3653 141.029 57.408L141.797 56.896C141.84 56.896 141.882 56.9173 141.925 56.96C142.01 57.0027 142.074 57.024 142.117 57.024C142.245 57.024 142.458 56.96 142.757 56.832C143.056 56.7467 143.333 56.6187 143.589 56.448C143.845 56.2773 143.952 56.1493 143.909 56.064C143.909 55.9787 143.952 55.936 144.037 55.936C144.08 55.936 144.122 55.9573 144.165 56C144.25 56.0427 144.314 56.064 144.357 56.064C144.442 56.064 144.549 56.0213 144.677 55.936C144.805 55.8507 144.89 55.808 144.933 55.808C145.018 55.7653 145.21 55.616 145.509 55.36L145.893 55.04L145.957 55.104C146 55.1467 146.042 55.168 146.085 55.168C146.298 55.168 146.533 55.04 146.789 54.784C147.045 54.528 147.258 54.4 147.429 54.4C147.429 54.3147 147.472 54.208 147.557 54.08C147.642 53.952 147.685 53.8453 147.685 53.76C147.685 53.7173 147.642 53.6533 147.557 53.568C147.472 53.4827 147.408 53.4187 147.365 53.376C147.664 53.248 147.813 53.0773 147.813 52.864C147.813 52.8213 147.77 52.8 147.685 52.8C147.6 52.8 147.557 52.7787 147.557 52.736C147.557 52.608 147.621 52.5013 147.749 52.416C148.261 52.416 148.709 52.096 149.093 51.456C149.477 50.7733 149.797 50.3893 150.053 50.304C150.522 49.536 150.778 49.0027 150.821 48.704L150.885 48.64H151.077C151.077 48.5973 151.44 48.1067 152.165 47.168C152.122 46.9973 152.144 46.848 152.229 46.72C152.314 46.592 152.442 46.464 152.613 46.336C152.826 46.1653 152.954 46.0373 152.997 45.952V45.824C152.997 45.6107 152.954 45.44 152.869 45.312C152.912 45.312 152.997 45.3547 153.125 45.44C153.253 45.4827 153.338 45.504 153.381 45.504C153.424 45.504 153.488 45.44 153.573 45.312C153.658 45.184 153.701 45.0987 153.701 45.056V44.672V44.544L154.725 43.456C155.408 42.688 155.749 42.1547 155.749 41.856C155.749 41.7707 155.706 41.6427 155.621 41.472C155.536 41.2587 155.493 41.1307 155.493 41.088V40.704C155.578 40.704 155.706 40.7467 155.877 40.832C156.048 40.9173 156.197 40.96 156.325 40.96C156.453 40.96 156.56 40.8107 156.645 40.512C156.73 40.1707 156.858 40 157.029 40C157.072 40 157.114 40.0427 157.157 40.128C157.242 40.2133 157.306 40.256 157.349 40.256L157.477 40.192C157.434 40.192 157.413 40.1493 157.413 40.064C157.413 40.0213 157.392 39.9787 157.349 39.936C157.349 39.8507 157.413 39.808 157.541 39.808C157.584 39.808 157.648 39.8293 157.733 39.872C157.861 39.9147 157.968 39.936 158.053 39.936L158.117 40.064C158.16 40.1493 158.202 40.192 158.245 40.192C158.33 40.192 158.373 40.1707 158.373 40.128C158.458 40.128 158.544 40.1707 158.629 40.256C158.629 40.2987 158.693 40.4267 158.821 40.64C158.949 40.8107 159.013 40.9387 159.013 41.024C159.013 41.0667 158.992 41.1307 158.949 41.216C158.949 41.2587 158.949 41.3013 158.949 41.344C158.949 41.3867 158.992 41.4507 159.077 41.536C159.077 41.792 158.949 42.0693 158.693 42.368C158.437 42.624 158.309 42.816 158.309 42.944C158.309 43.2 158.16 43.4347 157.861 43.648C157.562 43.8187 157.413 43.9253 157.413 43.968C157.413 44.0107 157.413 44.0533 157.413 44.096L157.477 44.224C157.477 44.3093 157.434 44.352 157.349 44.352L157.157 44.288C156.986 44.288 156.901 44.352 156.901 44.48C156.901 44.5653 156.922 44.608 156.965 44.608C156.965 44.6933 156.944 44.7573 156.901 44.8L156.069 45.568L155.941 45.952C155.856 46.1653 155.557 46.528 155.045 47.04C154.533 47.552 154.277 47.9787 154.277 48.32C154.32 48.3627 154.362 48.384 154.405 48.384H154.533C154.661 48.384 154.832 48.2987 155.045 48.128C155.301 47.9573 155.557 47.744 155.813 47.488C156.112 47.1893 156.282 47.0187 156.325 46.976C156.453 46.8907 156.688 46.6987 157.029 46.4C157.37 46.0587 157.712 45.76 158.053 45.504C158.394 45.2053 158.65 45.056 158.821 45.056C158.821 45.0987 158.842 45.12 158.885 45.12C158.97 45.12 159.077 45.0347 159.205 44.864C159.333 44.6933 159.418 44.608 159.461 44.608L160.037 43.968C160.08 43.9253 160.4 43.776 160.997 43.52C161.594 43.2213 161.914 42.9867 161.957 42.816C162 42.6027 162.256 42.432 162.725 42.304C163.237 42.1333 163.493 42.0053 163.493 41.92V41.536C163.578 41.536 163.664 41.5787 163.749 41.664C163.792 41.8347 163.984 42.0907 164.325 42.432C164.709 42.7733 164.901 42.9867 164.901 43.072C164.816 43.1573 164.752 43.2213 164.709 43.264L164.581 43.328C164.581 43.584 164.325 44.352 163.813 45.632V45.76C163.813 45.8027 163.813 45.8667 163.813 45.952L163.877 46.08C163.877 46.2507 163.557 46.656 162.917 47.296C162.874 47.5093 162.725 47.8507 162.469 48.32C162.213 48.7467 162.085 49.1093 162.085 49.408C162.085 49.4507 162.106 49.5573 162.149 49.728C162.192 49.8987 162.213 50.0053 162.213 50.048C162.213 50.176 162.128 50.368 161.957 50.624C161.829 50.8373 161.765 50.9867 161.765 51.072C161.765 51.1573 161.786 51.2 161.829 51.2C161.744 51.3707 161.701 51.5627 161.701 51.776C161.701 51.904 161.722 52.1387 161.765 52.48C161.85 52.7787 161.893 53.0133 161.893 53.184C161.978 53.6533 162.256 54.08 162.725 54.464C163.194 54.848 163.642 55.04 164.069 55.04C164.112 55.04 164.197 54.9973 164.325 54.912C164.453 54.8267 164.56 54.784 164.645 54.784L164.773 54.848C164.901 54.848 165.072 54.8267 165.285 54.784C165.541 54.6987 165.733 54.656 165.861 54.656C166.288 54.528 166.544 54.2507 166.629 53.824C166.714 53.3973 166.821 53.1413 166.949 53.056V52.608C167.077 52.4373 167.205 52.1387 167.333 51.712C167.461 51.2853 167.653 50.944 167.909 50.688C167.952 50.6027 168.037 50.4747 168.165 50.304C168.293 50.1333 168.4 49.984 168.485 49.856L168.613 49.728C168.698 49.6853 168.784 49.6427 168.869 49.6L168.997 49.472C168.954 49.4293 168.933 49.3867 168.933 49.344C168.933 49.088 170.085 47.808 172.389 45.504C172.645 45.2907 173.2 44.6933 174.053 43.712C174.949 42.688 175.802 41.792 176.613 41.024C177.466 40.256 178.106 39.8507 178.533 39.808C178.576 39.7653 178.64 39.6373 178.725 39.424C178.81 39.2107 178.917 39.04 179.045 38.912C179.173 38.784 179.344 38.72 179.557 38.72L179.685 38.784C179.77 38.784 179.856 38.7413 179.941 38.656C180.026 38.5707 180.09 38.4853 180.133 38.4C180.218 38.272 180.282 38.1867 180.325 38.144C180.453 38.1013 180.901 37.824 181.669 37.312C182.437 36.8 182.864 36.544 182.949 36.544H183.077C183.376 36.288 183.717 36.16 184.101 36.16C184.485 36.16 184.89 36.4587 185.317 37.056C185.786 37.6107 186.085 37.888 186.213 37.888C186.213 38.1013 186.149 38.336 186.021 38.592V39.168C186.021 39.3387 185.957 39.552 185.829 39.808C185.701 40.0213 185.658 40.2347 185.701 40.448C185.701 40.5333 185.488 40.768 185.061 41.152C185.061 42.6453 184.4 43.968 183.077 45.12C183.077 45.1627 183.098 45.2267 183.141 45.312C183.184 45.3973 183.205 45.4613 183.205 45.504H183.141C183.056 45.5893 182.949 45.5893 182.821 45.504C182.778 45.5467 182.757 45.632 182.757 45.76L182.373 46.08V46.4L181.989 46.784C181.69 47.0827 181.392 47.4027 181.093 47.744C180.837 48.0427 180.688 48.256 180.645 48.384C180.346 48.512 179.728 49.0453 178.789 49.984L178.725 50.176C178.725 50.304 178.704 50.368 178.661 50.368H178.341L178.085 50.624C177.914 50.624 177.296 51.0293 176.229 51.84C175.205 52.608 174.544 53.056 174.245 53.184C174.032 53.184 173.754 53.3333 173.413 53.632C173.072 53.888 172.837 54.016 172.709 54.016C172.666 54.016 172.624 53.9947 172.581 53.952C172.538 53.9093 172.496 53.888 172.453 53.888C172.41 53.888 172.325 53.952 172.197 54.08C172.069 54.1653 171.962 54.208 171.877 54.208H171.813C171.77 54.1653 171.728 54.144 171.685 54.144C171.6 54.144 171.536 54.208 171.493 54.336C171.45 54.464 171.408 54.528 171.365 54.528C170.938 54.528 170.576 54.6133 170.277 54.784C170.149 54.784 170 54.8267 169.829 54.912C169.701 54.9973 169.616 55.04 169.573 55.04H169.189C168.976 55.04 168.869 55.232 168.869 55.616C168.869 55.9573 169.232 56.128 169.957 56.128C170 56.128 170.042 56.128 170.085 56.128L170.213 56.064L170.341 56.128C170.384 56.1707 170.426 56.192 170.469 56.192C170.64 56.192 170.896 56.1067 171.237 55.936C171.621 55.7227 171.877 55.616 172.005 55.616C172.048 55.616 172.112 55.616 172.197 55.616L172.325 55.68C172.581 55.68 172.944 55.552 173.413 55.296C173.925 54.9973 174.288 54.848 174.501 54.848H174.693L174.949 54.528C175.162 54.3147 175.376 54.2293 175.589 54.272L175.845 54.016C176.016 54.0587 176.229 53.9733 176.485 53.76C176.741 53.504 176.912 53.376 176.997 53.376C177.082 53.376 177.168 53.3973 177.253 53.44C177.338 53.4827 177.424 53.504 177.509 53.504C177.594 53.4613 177.786 53.2907 178.085 52.992C178.384 52.6933 178.682 52.416 178.981 52.16L179.429 51.776H180.005C181.114 51.0933 181.754 50.752 181.925 50.752H181.989C182.032 50.7947 182.074 50.816 182.117 50.816C182.245 50.816 182.309 50.7307 182.309 50.56L182.245 50.432V50.368L182.757 49.856C182.8 49.856 182.885 49.792 183.013 49.664C183.141 49.4933 183.226 49.408 183.269 49.408C183.824 49.408 184.272 48.96 184.613 48.064C184.656 47.936 184.762 47.744 184.933 47.488C185.104 47.232 185.274 46.9973 185.445 46.784C185.658 46.5707 185.765 46.4427 185.765 46.4C185.637 46.4 185.573 46.2293 185.573 45.888L186.469 44.992L186.405 44.864C186.448 44.7787 186.533 44.6507 186.661 44.48C186.832 44.3093 186.938 44.16 186.981 44.032C187.066 43.904 187.109 43.7547 187.109 43.584C187.749 42.688 188.133 42.1973 188.261 42.112V41.728C188.261 41.6853 188.389 41.5573 188.645 41.344C188.901 41.1307 189.029 40.96 189.029 40.832C189.029 40.7893 189.029 40.768 189.029 40.768L188.965 40.64C189.05 40.4693 189.456 39.9147 190.181 38.976C190.906 37.9947 191.29 37.504 191.333 37.504C191.333 37.4613 191.354 37.3547 191.397 37.184C191.44 36.9707 191.482 36.8213 191.525 36.736C193.146 34.6027 194.021 33.4293 194.149 33.216C194.149 33.0453 194.298 32.8107 194.597 32.512C194.938 32.2133 195.109 32 195.109 31.872C195.109 31.8293 195.088 31.7653 195.045 31.68C195.045 31.4667 195.728 30.5707 197.093 28.992C198.501 27.4133 199.226 26.4747 199.269 26.176C199.354 26.0907 199.461 25.9627 199.589 25.792C199.76 25.6213 199.866 25.4933 199.909 25.408C199.866 25.152 200.314 24.64 201.253 23.872C202.192 23.104 202.661 22.656 202.661 22.528V22.272L203.301 21.632ZM205.285 20.8H205.349H205.285ZM201.509 25.472L201.445 25.6C201.445 25.6853 201.466 25.7707 201.509 25.856C201.552 25.8987 201.573 25.9413 201.573 25.984C201.573 26.1547 201.338 26.24 200.869 26.24H200.613C200.613 26.2827 200.656 26.304 200.741 26.304C200.869 26.304 200.933 26.3467 200.933 26.432C200.933 26.56 200.357 27.2853 199.205 28.608C198.096 29.888 197.562 30.6133 197.605 30.784C197.52 30.8267 197.349 30.9973 197.093 31.296C196.837 31.5947 196.645 31.7867 196.517 31.872C196.56 31.9573 196.581 32.0213 196.581 32.064C196.581 32.2347 196.453 32.448 196.197 32.704C195.984 32.96 195.856 33.1307 195.813 33.216C195.813 33.6 195.322 34.3253 194.341 35.392C193.36 36.416 192.869 37.1413 192.869 37.568L192.805 37.632H192.421C192.378 37.632 192.357 37.6747 192.357 37.76V37.824C192.4 37.9093 192.421 37.9733 192.421 38.016C192.421 38.1867 192.293 38.4 192.037 38.656C191.824 38.8693 191.717 39.104 191.717 39.36L191.397 39.936C191.354 39.9787 191.269 40.0213 191.141 40.064C191.056 40.1067 190.992 40.1707 190.949 40.256C190.864 40.3413 190.778 40.5333 190.693 40.832C190.65 41.088 190.565 41.28 190.437 41.408C190.394 41.4507 190.266 41.4933 190.053 41.536C189.84 41.536 189.733 41.6 189.733 41.728V42.24C189.733 42.368 189.498 42.7947 189.029 43.52C188.56 44.2453 188.304 44.6933 188.261 44.864L188.133 44.992C188.09 44.992 188.048 44.992 188.005 44.992L187.877 44.928C187.792 44.928 187.728 44.9493 187.685 44.992C187.685 45.12 187.664 45.2267 187.621 45.312C187.621 45.44 187.706 45.504 187.877 45.504C187.962 45.504 188.645 44.9067 189.925 43.712C191.205 42.4747 191.888 41.792 191.973 41.664C192.016 41.4933 192.037 41.3867 192.037 41.344C192.037 41.2587 192.016 41.1947 191.973 41.152C191.973 41.024 192.122 40.896 192.421 40.768C192.762 40.5973 192.933 40.4907 192.933 40.448L192.869 40.32C192.869 40.2773 193.125 39.9787 193.637 39.424C194.149 38.8267 194.448 38.4 194.533 38.144C194.576 38.016 194.832 37.696 195.301 37.184C195.77 36.6293 196.005 36.3307 196.005 36.288C196.005 36.2453 195.984 36.2027 195.941 36.16C195.941 36.1173 196.282 35.6907 196.965 34.88C197.69 34.0267 198.096 33.5573 198.181 33.472C198.138 33.2587 198.224 33.0027 198.437 32.704C198.693 32.4053 199.013 32.0853 199.397 31.744C199.781 31.36 199.994 31.1467 200.037 31.104C200.037 30.9333 200.314 30.464 200.869 29.696C201.424 28.928 201.786 28.5227 201.957 28.48C201.914 28.3947 201.893 28.288 201.893 28.16C201.893 28.1173 201.957 28.0747 202.085 28.032C202.256 27.9893 202.341 27.9253 202.341 27.84C202.341 27.7973 202.298 27.7333 202.213 27.648C202.128 27.5627 202.106 27.4987 202.149 27.456C202.149 27.4133 202.213 27.3493 202.341 27.264C202.512 27.1787 202.618 27.0933 202.661 27.008L203.301 26.304C203.429 26.2187 203.664 25.9413 204.005 25.472C204.346 25.0027 204.517 24.704 204.517 24.576C204.517 24.5333 204.496 24.4907 204.453 24.448C204.453 24.3627 204.453 24.2987 204.453 24.256C204.453 24.1707 204.581 24 204.837 23.744C205.136 23.4453 205.264 23.168 205.221 22.912C205.221 22.8693 205.285 22.8053 205.413 22.72C205.584 22.6347 205.669 22.5707 205.669 22.528V22.272H205.861C206.032 22.272 206.117 22.336 206.117 22.464C206.117 22.5067 206.096 22.5493 206.053 22.592V22.72C206.053 22.848 206.117 22.912 206.245 22.912C206.373 22.912 206.437 22.8267 206.437 22.656C206.437 22.6133 206.416 22.528 206.373 22.4C206.33 22.272 206.309 22.1867 206.309 22.144H206.501L206.565 22.016C206.565 21.888 206.522 21.824 206.437 21.824C206.394 21.824 206.352 21.8453 206.309 21.888L206.181 21.952C206.138 21.952 206.074 21.888 205.989 21.76L205.925 21.632C205.584 21.9307 205.114 22.3573 204.517 22.912C203.962 23.424 203.429 23.8933 202.917 24.32C202.448 24.7467 201.978 25.1307 201.509 25.472ZM203.109 22.464V22.4V22.464ZM205.157 23.872C205.242 23.9147 205.306 23.936 205.349 23.936L205.541 23.872V23.808H205.349C205.221 23.808 205.157 23.8293 205.157 23.872ZM202.725 27.456L202.789 27.52L202.853 27.584C202.853 27.6267 202.81 27.6693 202.725 27.712C202.682 27.7547 202.661 27.7973 202.661 27.84C202.661 27.9253 202.704 27.968 202.789 27.968C202.917 27.968 202.981 27.84 202.981 27.584C202.981 27.4133 202.938 27.328 202.853 27.328C202.768 27.328 202.725 27.3707 202.725 27.456ZM197.093 29.888C197.178 29.888 197.221 29.8453 197.221 29.76C197.221 29.632 197.178 29.568 197.093 29.568V29.888ZM194.533 33.856V33.792V33.856ZM193.829 34.304C193.829 34.3467 193.872 34.368 193.957 34.368L193.829 34.304ZM197.029 35.264C196.944 35.264 196.901 35.3067 196.901 35.392C196.901 35.4773 196.944 35.52 197.029 35.52C197.114 35.52 197.157 35.4773 197.157 35.392C197.157 35.3067 197.114 35.264 197.029 35.264ZM192.357 35.776C192.357 35.8613 192.506 36.0107 192.805 36.224C192.848 36.224 192.869 36.16 192.869 36.032C192.869 35.8613 192.698 35.776 192.357 35.776ZM191.909 36.928V36.864V36.928ZM183.717 37.312C183.717 37.3547 183.738 37.376 183.781 37.376C183.909 37.376 183.994 37.3547 184.037 37.312C184.037 37.2267 183.973 37.184 183.845 37.184C183.674 37.184 183.632 37.2267 183.717 37.312ZM182.885 37.44L182.949 37.504C183.077 37.504 183.141 37.44 183.141 37.312H183.077L183.013 37.248C182.928 37.248 182.885 37.312 182.885 37.44ZM182.437 37.696C182.437 37.7813 182.522 37.824 182.693 37.824C182.778 37.824 182.821 37.7387 182.821 37.568C182.821 37.5253 182.778 37.504 182.693 37.504C182.522 37.504 182.437 37.568 182.437 37.696ZM183.333 38.016C183.205 38.016 183.141 38.0587 183.141 38.144C183.141 38.2293 183.226 38.272 183.397 38.272C183.525 38.272 183.589 38.2293 183.589 38.144C183.589 38.0587 183.504 38.016 183.333 38.016ZM185.381 38.272C185.381 38.1867 185.338 38.144 185.253 38.144C185.253 38.2293 185.296 38.272 185.381 38.272ZM180.837 38.656L180.901 38.72C181.114 38.72 181.221 38.656 181.221 38.528C181.221 38.4427 181.157 38.4 181.029 38.4L180.837 38.656ZM183.653 38.592C183.354 38.592 182.906 38.7627 182.309 39.104C181.712 39.4453 181.178 39.7867 180.709 40.128L180.005 40.704C179.92 40.704 179.877 40.6827 179.877 40.64C179.706 40.64 179.514 40.7893 179.301 41.088C179.13 41.3867 178.981 41.536 178.853 41.536C178.725 41.536 178.618 41.4933 178.533 41.408C178.533 41.3653 178.554 41.3227 178.597 41.28C178.682 41.2373 178.725 41.1947 178.725 41.152C178.725 41.0667 178.704 41.024 178.661 41.024L178.533 41.152V41.536C178.448 41.664 178.362 41.8133 178.277 41.984C177.893 42.2827 177.338 42.7733 176.613 43.456C175.93 44.1387 175.376 44.6293 174.949 44.928V45.248C174.949 45.3333 174.842 45.44 174.629 45.568C174.458 45.696 174.266 45.824 174.053 45.952C173.84 46.08 173.712 46.1653 173.669 46.208C172.944 47.1893 172.517 47.68 172.389 47.68L172.197 47.616C172.154 47.616 172.112 47.6373 172.069 47.68V48.192C172.069 48.2347 171.984 48.32 171.813 48.448C171.685 48.5333 171.621 48.5973 171.621 48.64H171.365C171.322 48.7253 171.194 48.896 170.981 49.152C170.81 49.3653 170.725 49.5147 170.725 49.6V49.984C170.725 50.0267 170.682 50.048 170.597 50.048L170.469 49.984C170.426 49.9413 170.384 49.92 170.341 49.92C170.213 49.92 170.021 50.0907 169.765 50.432C169.552 50.7733 169.445 50.9653 169.445 51.008C169.445 51.0507 169.445 51.1147 169.445 51.2C169.488 51.2427 169.509 51.2853 169.509 51.328C169.509 51.584 169.36 51.9467 169.061 52.416C168.762 52.8853 168.613 53.248 168.613 53.504V53.632L168.741 53.76C169.509 53.76 170.405 53.376 171.429 52.608H171.557C171.6 52.608 171.664 52.6293 171.749 52.672C171.834 52.672 171.898 52.672 171.941 52.672H172.069L172.517 52.224C172.56 52.2667 172.602 52.288 172.645 52.288C172.688 52.288 172.88 52.2453 173.221 52.16C173.306 52.1173 173.456 52.0107 173.669 51.84C173.882 51.6693 174.074 51.5413 174.245 51.456C174.458 51.3707 174.693 51.328 174.949 51.328C174.949 51.2853 174.928 51.264 174.885 51.264C174.885 51.264 174.885 51.2427 174.885 51.2C174.885 51.1573 174.906 51.136 174.949 51.136H175.013C175.056 51.1787 175.098 51.2 175.141 51.2C175.226 51.2 175.845 50.624 176.997 49.472C177.125 49.6 177.21 49.664 177.253 49.664C177.338 49.664 177.381 49.6 177.381 49.472C177.424 49.344 177.466 49.2587 177.509 49.216H177.637C177.978 49.216 178.234 49.152 178.405 49.024C178.362 48.8533 178.448 48.64 178.661 48.384C178.874 48.128 179.066 47.9573 179.237 47.872C179.28 47.7013 179.429 47.552 179.685 47.424C179.984 47.296 180.176 47.168 180.261 47.04C180.218 46.8693 180.389 46.6133 180.773 46.272C180.816 46.272 180.858 46.2507 180.901 46.208C180.944 46.1653 180.986 46.144 181.029 46.144C180.986 46.016 181.05 45.888 181.221 45.76C181.178 45.632 181.2 45.4827 181.285 45.312C181.37 45.1413 181.413 44.992 181.413 44.864C181.498 44.7787 181.626 44.6933 181.797 44.608C181.968 44.48 182.096 44.3733 182.181 44.288C182.224 44.2027 182.245 44.0533 182.245 43.84C182.288 43.7547 182.394 43.6267 182.565 43.456C182.778 43.2853 182.928 43.136 183.013 43.008C183.141 42.88 183.248 42.7307 183.333 42.56C183.418 42.3467 183.461 42.1333 183.461 41.92L183.717 41.792C183.717 41.7493 183.696 41.6853 183.653 41.6C183.61 41.5147 183.589 41.4507 183.589 41.408C183.589 41.3653 183.632 41.3013 183.717 41.216C183.802 41.1307 183.845 41.0667 183.845 41.024C183.845 40.9387 183.824 40.8747 183.781 40.832L183.845 40.768C183.888 40.6827 183.909 40.6187 183.909 40.576C183.909 40.5333 183.888 40.512 183.845 40.512L183.781 40.384C183.781 40.2987 183.845 40.128 183.973 39.872C184.144 39.5733 184.229 39.36 184.229 39.232C184.229 38.8053 184.037 38.592 183.653 38.592ZM184.741 38.592C184.656 38.592 184.613 38.6347 184.613 38.72C184.613 38.8053 184.656 38.848 184.741 38.848C184.826 38.848 184.869 38.8053 184.869 38.72L184.741 38.592ZM185.573 38.912L185.637 38.848H185.573V38.912ZM179.877 39.04H179.941C179.898 39.04 179.877 38.9973 179.877 38.912V39.04ZM181.861 38.976C181.904 38.976 181.946 38.9547 181.989 38.912H181.861V38.976ZM185.573 39.04H185.637L185.573 38.976V39.04ZM181.221 39.488C181.477 39.488 181.605 39.4027 181.605 39.232L181.477 39.104C181.306 39.104 181.221 39.232 181.221 39.488ZM180.453 39.36C180.325 39.36 180.261 39.4027 180.261 39.488L180.453 39.616C180.538 39.616 180.581 39.5947 180.581 39.552L180.453 39.36ZM185.189 39.616C185.189 39.744 185.317 39.808 185.573 39.808C185.573 39.552 185.488 39.424 185.317 39.424L185.253 39.552C185.253 39.5947 185.232 39.616 185.189 39.616ZM190.373 40.128C190.33 40.128 190.309 40.1707 190.309 40.256C190.352 40.2133 190.373 40.1707 190.373 40.128ZM138.277 40.832C138.277 41.088 138.362 41.216 138.533 41.216C138.533 41.0453 138.618 40.9173 138.789 40.832C138.789 40.4907 138.725 40.32 138.597 40.32C138.384 40.32 138.277 40.4907 138.277 40.832ZM139.749 40.448C139.664 40.448 139.621 40.4907 139.621 40.576L139.685 40.64C139.728 40.64 139.749 40.576 139.749 40.448ZM178.149 40.576V40.512V40.576ZM189.413 40.576L189.285 40.64L189.349 40.704C189.392 40.704 189.413 40.6613 189.413 40.576ZM138.533 41.536C138.405 41.5787 138.17 41.728 137.829 41.984C137.488 42.24 137.21 42.368 136.997 42.368C136.954 42.4107 136.848 42.496 136.677 42.624C136.506 42.752 136.4 42.8587 136.357 42.944C136.314 43.1147 136.016 43.392 135.461 43.776C134.949 44.16 134.65 44.4373 134.565 44.608L134.501 44.736H134.181C133.968 44.736 133.178 45.568 131.813 47.232C130.448 48.896 129.68 49.728 129.509 49.728L129.317 49.664C128.848 50.6027 128.549 51.136 128.421 51.264C127.866 52.16 127.482 52.608 127.269 52.608C127.226 52.608 127.184 52.544 127.141 52.416C127.098 52.4587 127.077 52.5013 127.077 52.544L127.141 52.608C127.141 52.736 126.885 53.2267 126.373 54.08C125.52 55.104 125.093 56.1067 125.093 57.088V57.408C125.093 57.4933 125.136 57.536 125.221 57.536C125.306 57.536 125.392 57.5147 125.477 57.472C125.562 57.472 125.626 57.472 125.669 57.472C125.754 57.472 125.84 57.4933 125.925 57.536C126.01 57.5787 126.074 57.6 126.117 57.6L126.565 57.216C126.693 57.088 127.056 56.9173 127.653 56.704C128.25 56.5333 128.656 56.2987 128.869 56H128.933C128.89 56 128.869 56 128.869 56C128.912 56.0427 128.976 56.0853 129.061 56.128C129.36 56.1707 129.744 55.8507 130.213 55.168C130.256 55.1253 130.298 55.104 130.341 55.104H130.597L130.853 54.848H131.109C131.578 54.848 131.77 54.5707 131.685 54.016C131.77 53.888 131.92 53.824 132.133 53.824L132.325 53.888C132.41 53.888 132.474 53.8453 132.517 53.76C132.602 53.6747 132.666 53.632 132.709 53.632C132.752 53.632 132.794 53.6533 132.837 53.696C132.88 53.696 132.922 53.696 132.965 53.696C133.008 53.696 133.306 53.4613 133.861 52.992C134.416 52.5227 134.693 52.2667 134.693 52.224C135.29 51.8827 136.122 51.1147 137.189 49.92C138.298 48.7253 138.832 47.872 138.789 47.36L138.853 47.232C138.896 47.1467 138.917 47.0827 138.917 47.04L138.853 46.912C138.853 46.8267 138.853 46.7627 138.853 46.72C138.853 46.5067 138.938 46.1867 139.109 45.76C139.28 45.2907 139.344 44.928 139.301 44.672C139.344 44.6293 139.408 44.5227 139.493 44.352C139.578 44.1813 139.664 44.0533 139.749 43.968C139.834 43.8827 139.941 43.84 140.069 43.84C140.069 43.7973 140.026 43.712 139.941 43.584C139.898 43.4133 139.877 43.264 139.877 43.136C139.877 43.0933 139.92 42.9653 140.005 42.752C140.005 42.6667 139.984 42.5387 139.941 42.368C139.898 42.1547 139.877 41.984 139.877 41.856C139.877 41.7707 139.898 41.6427 139.941 41.472C139.984 41.3013 140.005 41.1733 140.005 41.088C140.005 40.8747 139.898 40.768 139.685 40.768H139.237C139.237 40.8107 139.13 40.96 138.917 41.216C138.704 41.4293 138.576 41.536 138.533 41.536ZM190.117 40.768C189.946 40.768 189.861 40.832 189.861 40.96C189.861 41.088 189.946 41.152 190.117 41.152C190.245 41.152 190.309 41.088 190.309 40.96C190.309 40.832 190.245 40.768 190.117 40.768ZM136.613 41.024C136.613 41.0667 136.634 41.088 136.677 41.088L136.741 41.024H136.613ZM136.677 41.472C136.677 41.5147 136.72 41.536 136.805 41.536C136.89 41.536 136.997 41.472 137.125 41.344C137.125 41.2587 137.061 41.216 136.933 41.216C136.762 41.216 136.677 41.3013 136.677 41.472ZM157.093 41.472H157.157C157.114 41.4293 157.093 41.3867 157.093 41.344V41.472ZM157.221 41.664V41.536V41.664ZM188.837 41.728C188.837 41.8133 188.922 41.856 189.093 41.856C189.093 41.7707 189.05 41.728 188.965 41.728H188.837ZM157.925 41.792V41.728V41.792ZM184.165 41.92V41.856V41.92ZM177.253 42.624C177.253 42.3253 177.104 42.176 176.805 42.176C176.848 42.2187 176.869 42.2827 176.869 42.368C176.912 42.4107 176.954 42.4533 176.997 42.496C177.082 42.5387 177.168 42.5813 177.253 42.624ZM183.717 42.24L183.781 42.304V42.176L183.717 42.24ZM175.717 42.496L175.845 42.56C175.888 42.56 175.909 42.5387 175.909 42.496C175.909 42.4533 175.888 42.432 175.845 42.432C175.802 42.432 175.76 42.4533 175.717 42.496ZM188.005 43.264C187.962 43.264 187.92 43.3067 187.877 43.392L188.005 43.264ZM140.133 43.392L140.197 43.456C140.197 43.4133 140.176 43.392 140.133 43.392ZM142.181 43.456C142.181 43.4987 142.202 43.52 142.245 43.52V43.456H142.181ZM161.637 43.968C161.594 44.0107 161.616 44.032 161.701 44.032C161.786 44.032 161.829 43.8827 161.829 43.584L161.765 43.52C161.722 43.52 161.701 43.5413 161.701 43.584L161.637 43.968ZM173.861 44.16L174.309 44.544C174.394 44.4587 174.437 44.3947 174.437 44.352L174.373 44.288L174.309 44.16C174.309 44.1173 174.309 44.096 174.309 44.096L174.373 43.968C174.373 43.84 174.352 43.776 174.309 43.776L174.181 43.904C174.096 43.9893 174.032 44.0533 173.989 44.096L173.861 44.16ZM140.389 43.968C140.389 44.0533 140.41 44.096 140.453 44.096C140.581 44.096 140.645 44.0107 140.645 43.84C140.602 43.7973 140.56 43.776 140.517 43.776C140.432 43.776 140.389 43.84 140.389 43.968ZM182.949 44.096C182.949 44.3947 182.992 44.544 183.077 44.544C183.12 44.5013 183.141 44.4373 183.141 44.352C183.184 44.224 183.205 44.1387 183.205 44.096C183.205 44.0533 183.162 43.9893 183.077 43.904C182.992 43.904 182.949 43.968 182.949 44.096ZM174.245 44.864C174.245 44.9493 174.266 44.992 174.309 44.992V44.8L174.245 44.864ZM182.053 44.992V44.928V44.992ZM186.277 45.696C186.32 45.7813 186.362 45.824 186.405 45.824C186.533 45.824 186.597 45.7387 186.597 45.568C186.597 45.4827 186.554 45.44 186.469 45.44C186.426 45.44 186.362 45.5253 186.277 45.696ZM187.557 45.632C187.557 45.76 187.6 45.824 187.685 45.824C187.728 45.824 187.749 45.7813 187.749 45.696C187.749 45.6107 187.728 45.568 187.685 45.568C187.6 45.568 187.557 45.5893 187.557 45.632ZM173.925 45.696V45.568V45.696ZM186.789 45.76L186.981 46.016C186.981 45.8453 186.917 45.76 186.789 45.76ZM142.245 45.888C142.16 45.888 142.117 45.9093 142.117 45.952C142.117 45.9947 142.16 46.016 142.245 46.016C142.288 46.016 142.33 45.9947 142.373 45.952L142.245 45.888ZM187.301 46.336V46.208C187.301 46.1653 187.258 46.144 187.173 46.144V46.272C187.173 46.3147 187.216 46.336 187.301 46.336ZM181.221 46.208V46.144V46.208ZM187.749 46.272C187.749 46.3573 187.77 46.4 187.813 46.4C187.898 46.4 187.941 46.3787 187.941 46.336L187.813 46.208L187.749 46.272ZM162.533 46.72C162.533 46.7627 162.554 46.8053 162.597 46.848C162.64 46.848 162.682 46.8267 162.725 46.784C162.768 46.784 162.789 46.7627 162.789 46.72C162.789 46.6347 162.746 46.592 162.661 46.592L162.533 46.72ZM187.365 46.784C187.45 46.784 187.493 46.7413 187.493 46.656C187.408 46.656 187.365 46.6987 187.365 46.784ZM179.685 48.064L179.749 48.128C179.792 48.1707 179.813 48.2133 179.813 48.256L179.941 48.192C179.941 48.1067 179.856 48.064 179.685 48.064ZM170.085 48.32H170.149V48.256H170.085V48.32ZM153.765 49.024C153.765 49.1947 153.808 49.28 153.893 49.28C154.064 49.28 154.149 49.1093 154.149 48.768V48.64H153.893C153.808 48.64 153.765 48.768 153.765 49.024ZM170.341 49.408C170.64 49.408 170.789 49.3013 170.789 49.088C170.789 49.0027 170.746 48.96 170.661 48.96C170.448 48.96 170.341 49.1093 170.341 49.408ZM161.445 49.6H161.509H161.765C161.765 49.5147 161.701 49.472 161.573 49.472C161.488 49.472 161.445 49.5147 161.445 49.6ZM169.701 49.856V49.792V49.856ZM161.701 50.24V50.176V50.24ZM181.925 50.624C181.925 50.5387 181.989 50.496 182.117 50.496C182.117 50.624 182.074 50.688 181.989 50.688L181.925 50.624ZM127.461 50.688L127.525 50.816C127.61 50.816 127.653 50.7733 127.653 50.688L127.525 50.624L127.461 50.688ZM168.357 51.072C168.357 51.1573 168.378 51.2 168.421 51.2C168.506 51.2 168.549 51.136 168.549 51.008C168.549 50.88 168.528 50.816 168.485 50.816C168.4 50.816 168.357 50.9013 168.357 51.072ZM183.717 50.88C183.674 50.88 183.653 50.9013 183.653 50.944H183.845C183.845 50.9013 183.802 50.88 183.717 50.88ZM169.189 51.008H169.253L169.189 50.88V51.008ZM153.253 51.008C153.253 51.1787 153.36 51.264 153.573 51.264C153.573 51.0507 153.509 50.944 153.381 50.944L153.253 51.008ZM181.349 51.392L181.477 51.456C181.605 51.456 181.669 51.4133 181.669 51.328L181.605 51.264C181.52 51.264 181.434 51.3067 181.349 51.392ZM127.077 51.328H127.141H127.077ZM168.869 51.328H168.933H168.869ZM168.421 51.648C168.421 51.6907 168.442 51.712 168.485 51.712C168.57 51.712 168.613 51.6693 168.613 51.584C168.613 51.5413 168.592 51.52 168.549 51.52C168.464 51.52 168.421 51.5627 168.421 51.648ZM180.837 51.52V51.456V51.52ZM136.869 52.16C136.954 52.16 136.997 52.096 136.997 51.968C136.912 51.968 136.869 52.032 136.869 52.16ZM147.941 52.736H147.877H147.941ZM136.229 53.056L136.293 52.992C136.293 52.864 136.229 52.8 136.101 52.8C136.101 52.9707 136.144 53.056 136.229 53.056ZM168.101 53.568C167.973 53.568 167.909 53.6107 167.909 53.696C167.909 53.7813 167.952 53.824 168.037 53.824C168.08 53.824 168.122 53.7813 168.165 53.696C168.208 53.6107 168.25 53.568 168.293 53.568V53.376H168.165C168.122 53.376 168.101 53.44 168.101 53.568ZM160.293 53.824H160.357H160.293ZM125.349 54.016V53.952V54.016ZM125.797 54.272V54.208H125.733L125.797 54.272ZM162.213 54.592V54.464V54.592ZM162.213 54.848H162.277V54.72H162.213V54.848ZM125.157 55.552V55.488V55.552ZM137.061 55.68H137.125V55.616H137.061V55.68ZM137.061 55.936C137.146 55.936 137.189 55.8933 137.189 55.808C137.104 55.808 137.061 55.8507 137.061 55.936ZM123.813 55.808C123.728 55.808 123.685 55.9147 123.685 56.128C123.77 56.2133 123.856 56.256 123.941 56.256L124.005 56.192C124.048 56.1493 124.048 56.0853 124.005 56C123.92 55.872 123.856 55.808 123.813 55.808ZM182.757 56.192C182.757 56.064 182.714 56 182.629 56C182.629 56.128 182.672 56.192 182.757 56.192ZM173.669 56.256H173.861L173.733 56.064L173.669 56.256ZM137.317 56.128C137.146 56.128 137.061 56.192 137.061 56.32C137.061 56.448 137.104 56.512 137.189 56.512C137.317 56.512 137.381 56.4267 137.381 56.256L137.317 56.128ZM129.637 56.32C129.722 56.32 129.765 56.2987 129.765 56.256L129.637 56.192V56.32ZM182.053 56.384V56.32V56.384ZM123.941 56.576C123.941 56.6613 123.962 56.704 124.005 56.704C124.005 56.576 123.984 56.4907 123.941 56.448V56.576ZM135.909 56.768C135.909 56.8107 135.93 56.832 135.973 56.832C135.973 56.7893 135.952 56.768 135.909 56.768ZM171.429 56.96H171.493C171.493 56.8747 171.472 56.832 171.429 56.832V56.96ZM124.197 57.152L124.261 57.216C124.432 57.216 124.517 57.1307 124.517 56.96C124.304 56.96 124.197 57.024 124.197 57.152ZM182.373 57.6V57.536V57.6ZM125.157 59.392C125.242 59.392 125.285 59.3707 125.285 59.328C125.2 59.328 125.157 59.3493 125.157 59.392ZM157.605 67.2C157.605 67.1147 157.626 67.072 157.669 67.072C157.712 67.072 157.733 67.136 157.733 67.264C157.648 67.264 157.605 67.2427 157.605 67.2Z" fill="#323232"/>
</svg>
